<svg width="16" height="13" viewBox="0 0 16 13" fill="none" xmlns="http://www.w3.org/2000/svg">
    <path fill-rule="evenodd" clip-rule="evenodd" d="M1.80247 2.84802C1.82147 2.66222 1.7499 2.47895 1.61057 2.35424L0.1919 0.653721V0.399902H4.59863L8.0047 7.82865L10.9991 0.399902H15.2V0.653721L13.9865 1.8107C13.882 1.89006 13.8301 2.02043 13.8516 2.14955V10.6509C13.8301 10.7794 13.882 10.9097 13.9865 10.9891L15.1715 12.1461V12.3999H9.21057V12.1461L10.4386 10.9608C10.5589 10.8411 10.5589 10.8058 10.5589 10.6225V3.75119L7.1459 12.3722H6.68483L2.71067 3.75119V9.52917C2.67773 9.77166 2.7588 10.0167 2.93043 10.1917L4.52707 12.1177V12.3722H0V12.1177L1.59663 10.1917C1.76763 10.016 1.84363 9.76977 1.80247 9.52917V2.84802Z" fill="black"/>
</svg>
