<svg width="17" height="15" viewBox="0 0 17 15" fill="none" xmlns="http://www.w3.org/2000/svg">
    <path d="M0.480756 7.29936L4.15924 8.67099L5.59321 13.2847C5.65555 13.5964 6.02964 13.6587 6.27902 13.4717L8.33646 11.7883C8.5235 11.6013 8.83525 11.6013 9.08463 11.7883L12.7631 14.4692C13.0125 14.6563 13.3866 14.5316 13.4489 14.2199L16.1922 1.12702C16.2545 0.815288 15.9428 0.503556 15.6311 0.62825L0.480756 6.48886C0.106675 6.61355 0.106675 7.17467 0.480756 7.29936ZM5.40617 7.98518L12.6384 3.55855C12.7631 3.4962 12.8878 3.68325 12.7631 3.74559L6.84014 9.29446C6.6531 9.4815 6.46606 9.73089 6.46606 10.0426L6.27902 11.5389C6.27902 11.726 5.96729 11.7883 5.90494 11.5389L5.15677 8.79569C4.96973 8.48395 5.09444 8.10987 5.40617 7.98518Z" fill="black"/>
</svg>
