<svg width="32" height="33" viewBox="0 0 32 33" fill="none" xmlns="http://www.w3.org/2000/svg">
    <path d="M0 8.5C0 4.08172 3.58172 0.5 8 0.5H24C28.4183 0.5 32 4.08172 32 8.5V24.5C32 28.9183 28.4183 32.5 24 32.5H8C3.58172 32.5 0 28.9183 0 24.5V8.5Z" fill="#08A0E9" fill-opacity="0.2"/>
    <path fill-rule="evenodd" clip-rule="evenodd" d="M23.9999 12.5018C23.9999 12.5012 23.9999 12.5006 23.9999 12.5C23.9999 12.4999 23.9999 12.4999 23.9999 12.4998L25.875 10.4767C26.1806 10.1469 25.9057 9.61563 25.46 9.67458L23.1108 9.98528C22.3775 9.07926 21.2563 8.5 19.9999 8.5C17.7908 8.5 15.9999 10.2909 15.9999 12.5C15.9999 13.0274 16.102 13.531 16.2875 13.9921C13.2911 13.922 10.0828 13.3291 8.4608 10.1154C8.26009 9.71773 7.68469 9.6947 7.55692 10.1214C6.38319 14.0414 8.4488 19.1347 12.9997 20.5C11.8644 21.61 8.94607 21.9114 6.55785 21.6927C6.09312 21.6502 5.80137 22.1796 6.16075 22.4773C8.16328 24.1361 10.9407 24.5 13.4998 24.5C19.9991 24.5 24.4989 19.001 23.9999 12.5018Z" fill="#08A0E9"/>
</svg>
