<svg width="18" height="18" viewBox="0 0 18 18" fill="none" xmlns="http://www.w3.org/2000/svg">
<path d="M9 18C13.9706 18 18 13.9706 18 9C18 4.02944 13.9706 0 9 0C4.02944 0 0 4.02944 0 9C0 13.9706 4.02944 18 9 18Z" fill="#F3BA2C"/>
<path d="M8.94048 3.88654L10.194 5.1703L7.03749 8.32684L5.78394 7.07328L8.94048 3.88654Z" fill="white"/>
<path d="M10.8435 5.78955L12.097 7.07331L7.03749 12.1328L5.78394 10.8793L10.8435 5.78955Z" fill="white"/>
<path d="M5.13454 7.6925L6.38809 8.97627L5.13454 10.2298L3.88098 8.97627L5.13454 7.6925Z" fill="white"/>
<path d="M12.7464 7.6925L14 8.97627L8.94044 14.0358L7.68689 12.7822L12.7464 7.6925Z" fill="white"/>
</svg>
