<svg width="30" height="30" viewBox="0 0 30 30" fill="none" xmlns="http://www.w3.org/2000/svg">
<path d="M28.8317 12.8027L28.3171 10.6685L27.4749 8.63778L26.3257 6.7663L24.8974 5.09674L23.2261 3.67097L21.3521 2.52181L19.3214 1.68211L17.1872 1.17073L15.0185 1L12.8063 1.17484L10.6721 1.68867L8.64293 2.53166L6.77057 3.68082L5.10096 5.10905L3.67022 6.78272L2.52103 8.6542L1.68213 10.6841L1.17074 12.8182L1 15.009L1.17402 17.199L1.68869 19.3331L2.53088 21.3622L3.68007 23.2345L5.10835 24.9041L6.78042 26.3299L8.65442 27.479L10.6844 28.3187L12.8186 28.8293L15.0086 29L17.1986 28.826L19.3329 28.3113L21.362 27.4692L23.2344 26.32L24.904 24.8918L26.3298 23.2197L27.479 21.3458L28.3179 19.3159L28.8293 17.1818L29 14.991L28.8317 12.8027ZM26.4578 15.9095L28.7152 15.1707L28.5732 16.993L26.4578 15.9095ZM24.8884 21.0487L27.1301 21.4033L26.2272 22.8807L24.8884 21.0487ZM1.43423 16.9544L1.29633 15.2307L3.45598 15.9275L1.43423 16.9544ZM3.52986 14.1045L1.29386 14.8358L1.43423 13.03L3.52986 14.1045ZM5.12067 8.96037L2.87892 8.60577L3.78186 7.12828L5.12067 8.96037ZM28.5748 13.053L28.7119 14.7767L26.5522 14.0799L28.5748 13.053ZM19.1753 27.7523L17.7519 25.8012L17.9982 24.2532L19.1687 25.4245L19.1753 27.7523ZM10.833 2.25176L12.2596 4.20697L12.0133 5.7534L10.8379 4.5829L10.833 2.25176ZM20.0634 15.8241L19.9559 15.9316L19.905 15.7749L19.9871 15.6665L20.0634 15.8241ZM19.8771 16.5867L19.7474 16.6811L19.7269 16.5505L19.8319 16.4463L19.8771 16.5867ZM19.1555 18.0067L18.9914 18.06L19.0135 17.923L19.1531 17.8524L19.1555 18.0067ZM10.4603 17.1686L10.5867 17.2606V17.4067L10.434 17.3287L10.4603 17.1686ZM10.1812 16.4348L10.2805 16.5341L10.2575 16.6786L10.1311 16.5867L10.1812 16.4348ZM9.9448 14.2005L10.0573 14.0889L10.104 14.2325L10.022 14.3483L9.9448 14.2005ZM10.1311 13.4207L10.2608 13.3263L10.2838 13.4716L10.1812 13.5742L10.1311 13.4207ZM10.8527 12.0007L11.0168 11.9465L10.9947 12.0828L10.8527 12.155V12.0007ZM19.5537 12.8404L19.4248 12.7468V12.618L19.5766 12.6959L19.5537 12.8404ZM19.8303 13.5726L19.7326 13.4749L19.7556 13.3304L19.8795 13.4207L19.8303 13.5726ZM20.1307 14.9934L20.0248 15.1387L19.9633 15.0164L20.0371 14.8711L20.1307 14.9934ZM9.88323 15.014L9.98092 14.8785L10.0433 15.0025L9.97435 15.1387L9.88323 15.014ZM18.8486 16.5949L18.5539 17.1694L18.1434 17.7333L17.733 18.1438L17.1773 18.5484L16.6027 18.8423L15.928 19.0631L15.3846 19.1452H14.6819L14.0417 19.0442L13.3661 18.8324L12.8687 18.5772L12.3039 18.1667L11.8451 17.7087L11.4437 17.1588L11.1695 16.617L10.961 15.9751L10.86 15.3357V14.6873L10.9668 14.0224L11.1646 13.4133L11.4584 12.8388L11.8213 12.3372L12.3409 11.8193L12.8334 11.4614L13.408 11.1676L13.9826 10.9796L14.7377 10.8614H15.3304L15.9707 10.9632L16.5502 11.1503L17.2208 11.4934L17.7051 11.8456L18.1631 12.3036L18.5358 12.8141L18.8551 13.4437L19.0472 14.0364L19.149 14.6766V15.3423L19.048 15.9727L18.8486 16.5949ZM18.3019 11.7315L18.2896 11.7077H18.2945L18.3019 11.7298V11.7315ZM15.7441 10.4182L15.7203 10.4058H15.7301L15.7498 10.4198L15.7441 10.4182ZM12.904 10.8614H12.8826L12.8892 10.8515H12.9105L12.904 10.8614ZM12.2645 18.7668H12.2588H12.2645ZM13.5672 19.4234L13.5746 19.4284H13.5705L13.5647 19.4226L13.5672 19.4234ZM14.9979 19.6582L14.9889 19.6623L14.9979 19.6582ZM16.4394 19.4259H16.4451H16.4402H16.4394ZM17.7347 18.7692L17.7297 18.7783L17.7347 18.7692ZM19.7712 14.6356L19.8007 14.5436L19.8516 14.6134L19.8065 14.7037L19.7712 14.6356ZM18.6474 11.9088L18.6163 11.8127L18.6983 11.839L18.7148 11.9432L18.6474 11.9088ZM18.5104 11.4869L18.4677 11.3539L18.6261 11.3793L18.6499 11.532L18.5104 11.4869ZM18.182 11.3818L18.1057 11.3572L18.0728 11.2915L18.1549 11.3055L18.182 11.3818ZM17.9177 10.987L17.852 10.8565H18.0113L18.0605 11.0091L17.9177 10.987ZM17.5795 10.9328L17.4974 10.9197L17.4515 10.8565H17.5426L17.5795 10.9328ZM17.2471 10.5799L17.1716 10.4756L17.3357 10.4502L17.4014 10.5799H17.2471ZM16.904 10.5799H16.8309L16.7874 10.5355L16.8637 10.524L16.904 10.5799ZM16.5494 10.2958L16.4303 10.1768L16.5781 10.1284L16.6848 10.2745L16.5494 10.2958ZM16.2103 10.3484L16.1356 10.3599L16.0536 10.3L16.1356 10.2729L16.2103 10.3484ZM15.7761 10.1021L15.6628 10.0201L15.8057 9.947L15.9157 10.057L15.7761 10.1021ZM15.4478 10.2088L15.3657 10.2351L15.3017 10.2023L15.3837 10.1612L15.4478 10.2088ZM14.9979 10.0447L14.8691 9.97819L15.0012 9.88215L15.1309 9.97655L14.9979 10.0447ZM14.6926 10.1998L14.6212 10.2367L14.5465 10.2129L14.6171 10.1612L14.6926 10.1998ZM14.2198 10.1071L14.095 10.0668L14.2099 9.95274L14.3404 10.0192L14.2198 10.1071ZM13.9423 10.309L13.8832 10.3517L13.8192 10.3418L13.8742 10.2868L13.9423 10.309ZM13.4802 10.2876L13.316 10.2622L13.4071 10.1366L13.5762 10.1908L13.4802 10.2876ZM13.2339 10.5298L13.1798 10.584H13.0813L13.1313 10.5134L13.2339 10.5298ZM12.7414 10.584H12.6011L12.6741 10.4411L12.8268 10.4649L12.7414 10.584ZM12.5403 10.8606L12.4903 10.9312L12.4188 10.9418L12.4599 10.8598L12.5403 10.8606ZM12.0806 10.9952L11.9378 11.0174L11.9887 10.8606H12.1488L12.0806 10.9952ZM11.9255 11.2997L11.8894 11.3711L11.8147 11.3949L11.8418 11.3129L11.9255 11.2997ZM10.9249 12.5006L10.8502 12.5548V12.4686L10.938 12.4242L10.9249 12.5006ZM10.8625 12.8888V12.8954L10.8518 12.9061V12.897L10.8625 12.8888ZM10.228 14.6306L10.1927 14.6996L10.1566 14.629L10.2058 14.5617L10.228 14.6306ZM10.1919 15.3111L10.228 15.3817L10.2017 15.4638L10.1508 15.3932L10.1919 15.3111ZM10.4053 15.7322V15.7396V15.7322ZM11.2385 17.7391V17.7465V17.7391ZM11.3624 18.12L11.3862 18.1955L11.3041 18.1692L11.291 18.0871L11.3624 18.12ZM11.4921 18.5213L11.5356 18.6543L11.3772 18.6289L11.3526 18.4762L11.4921 18.5213ZM11.8204 18.6264L11.8861 18.6469L11.9198 18.7142L11.8451 18.7027L11.8204 18.6264ZM12.0749 19.0196L12.1414 19.1509H11.9912L11.9411 18.9991L12.0749 19.0196ZM12.4131 19.0738L12.5067 19.0885L12.5526 19.1509H12.4533L12.4131 19.0738ZM12.7546 19.4284L12.8424 19.5482L12.6667 19.5753L12.5929 19.4284H12.7546ZM13.0985 19.4284H13.1707L13.2298 19.4875L13.1478 19.4998L13.0985 19.4284ZM13.472 19.7296L13.5762 19.8338L13.4293 19.8823L13.3341 19.7518L13.472 19.7296ZM13.811 19.6771L13.8931 19.6648L13.9563 19.7107L13.8742 19.737L13.811 19.6771ZM14.2305 19.9118L14.3437 19.9939L14.2009 20.067L14.095 19.9545L14.2305 19.9118ZM14.5588 19.8051L14.6187 19.7854L14.6868 19.8207L14.6236 19.8527L14.5588 19.8051ZM14.9914 19.9767L15.1235 20.044L15.0053 20.1261L14.8756 20.0317L14.9914 19.9767ZM15.2959 19.8207L15.3854 19.7756L15.4593 19.7994L15.3772 19.8609L15.2959 19.8207ZM15.7884 19.9028L15.9263 19.9471L15.7983 20.0743L15.6538 20.0005L15.7884 19.9028ZM16.0667 19.7009L16.125 19.6582L16.2071 19.6705L16.1504 19.7271L16.0667 19.7009ZM16.5428 19.7247L16.6914 19.7477L16.6011 19.8732L16.4443 19.8224L16.5428 19.7247ZM16.789 19.4825L16.8449 19.4259H16.9269L16.8761 19.4957L16.789 19.4825ZM17.2692 19.4259H17.4088L17.3365 19.5687L17.183 19.5449L17.2692 19.4259ZM17.4695 19.1485L17.5065 19.0984L17.582 19.0861L17.55 19.1485H17.4695ZM17.9202 19.0335L18.0663 19.0106L18.022 19.1485H17.8578L17.9202 19.0335ZM18.0753 18.729L18.1213 18.6387L18.1952 18.6149L18.1623 18.7151L18.0753 18.729ZM19.0891 17.5068L19.1605 17.4551V17.5372L19.0784 17.5799L19.0891 17.5068ZM19.7769 15.3792L19.8081 15.3193L19.8434 15.3883L19.7999 15.4482L19.7769 15.3792ZM19.9953 14.3401L19.9091 14.2219L19.9526 14.0889L20.0659 14.2022L19.9953 14.3401ZM19.7072 13.9452L19.6653 13.887L19.6768 13.8131L19.7326 13.8689L19.7072 13.9452ZM19.4888 13.2336L19.424 13.1679V13.0867L19.5061 13.1441L19.4888 13.2336ZM19.1457 12.5457L19.0866 12.5022L19.0767 12.4407L19.1449 12.4751L19.1457 12.5457ZM19.0201 12.1017L18.9938 11.9375L19.1408 11.9851V12.1657L19.0201 12.1017ZM19.1408 11.6913L18.9446 11.6281L18.9126 11.4253L19.14 11.4614L19.1408 11.6913ZM18.8674 11.1372L18.8231 10.8573H19.1391V11.1807L18.8674 11.1372ZM18.5793 11.092L18.3708 11.0592L18.3052 10.8573H18.5424L18.5793 11.092ZM18.2149 10.5807L18.1328 10.327L18.4504 10.277L18.4981 10.5807H18.2149ZM17.9235 10.5807H17.7141L17.6247 10.4067L17.8545 10.3714L17.9235 10.5807ZM17.4933 10.1456L17.3546 9.87148L17.6608 9.77134L17.7683 10.0997L17.4933 10.1456ZM17.206 10.1908L16.9901 10.2244L16.8522 10.0365L17.0878 9.95931L17.206 10.1908ZM16.6807 9.80089L16.5165 9.57763L16.8161 9.42577L16.9598 9.70896L16.6807 9.80089ZM16.4032 9.89118L16.2087 9.95521L16.0651 9.81074L16.2694 9.7065L16.4032 9.89118ZM15.8574 9.60389L15.6571 9.40361L15.9124 9.2181L16.1028 9.47831L15.8574 9.60389ZM15.5972 9.73605L15.4084 9.83208L15.2442 9.70896L15.4363 9.56942L15.5972 9.73605ZM15.0021 9.53659L14.7837 9.37817L15.0119 9.1508L15.2311 9.36996L15.0021 9.53659ZM14.7656 9.70814L14.5933 9.83372L14.4176 9.74343L14.5818 9.57927L14.7656 9.70814ZM14.1582 9.61046L13.8898 9.47502L14.0802 9.21154L14.3601 9.41428L14.1582 9.61046ZM13.9514 9.81649L13.802 9.96752L13.582 9.89693L13.7248 9.69911L13.9514 9.81649ZM13.3021 9.80746L13.0402 9.72538L13.1904 9.42906L13.4728 9.57352L13.3021 9.80746ZM13.1313 10.0439L13.0107 10.208L12.8079 10.176L12.9122 9.97162L13.1313 10.0439ZM12.5223 10.1317L12.2424 10.0874L12.34 9.78694L12.6479 9.88626L12.5223 10.1317ZM12.3901 10.3911L12.2941 10.5799H12.0823L12.1562 10.3541L12.3901 10.3911ZM11.7909 10.5799H11.5175L11.5684 10.2614L11.8787 10.3098L11.7909 10.5799ZM11.7014 10.8565L11.6349 11.0609L11.4346 11.092L11.4724 10.8565H11.7014ZM11.5372 11.3572L11.4913 11.4975L11.3616 11.5402L11.387 11.3802L11.5372 11.3572ZM11.3862 11.8259L11.3632 11.8948L11.3 11.9268L11.3132 11.8497L11.3862 11.8259ZM10.4389 12.6762L10.5769 12.6065V12.7526L10.4644 12.8347L10.4389 12.6762ZM10.393 12.389L10.3577 12.1616L10.576 12.0902V12.2954L10.393 12.389ZM10.5777 13.0949V13.1769L10.5268 13.2287L10.5128 13.1417L10.5777 13.0949ZM10.3372 13.809L10.3503 13.8911L10.3051 13.9543L10.2772 13.8722L10.3372 13.809ZM9.53766 15.014L9.37349 15.2372L9.1379 15.0008L9.36282 14.7776L9.53766 15.014ZM9.70921 15.2495L9.8307 15.4137L9.73712 15.5967L9.57295 15.4326L9.70921 15.2495ZM9.56392 14.5789L9.73876 14.4049L9.83727 14.5994L9.70839 14.7776L9.56392 14.5789ZM10.0137 15.6665L10.0999 15.7847L10.0573 15.9177L9.94316 15.8044L10.0137 15.6665ZM10.3019 16.0613L10.347 16.1229L10.3347 16.1959L10.2772 16.1377L10.3019 16.0613ZM10.5227 16.7754L10.5851 16.8386V16.9158L10.5087 16.8608L10.5227 16.7754ZM10.8641 17.4608L10.9224 17.5035L10.9356 17.5856L10.8641 17.5495V17.4608ZM10.9889 17.9238L11.0127 18.0699L10.865 18.0231V17.8589L10.9889 17.9238ZM10.8658 18.3145L11.0612 18.3777L11.0932 18.5804L10.8658 18.5443V18.3145ZM11.1391 18.8677L11.1835 19.1476H10.8674V18.825L11.1391 18.8677ZM11.4264 18.9137L11.6357 18.9465L11.7014 19.1476H11.4683L11.4264 18.9137ZM11.7909 19.4251L11.8787 19.6951L11.5586 19.7452L11.5077 19.4251H11.7909ZM12.0823 19.4251H12.2834L12.3803 19.6171L12.1562 19.6516L12.0823 19.4251ZM12.5124 19.8765L12.6438 20.1367L12.3458 20.2344L12.2432 19.9192L12.5124 19.8765ZM12.8005 19.8322L13.0271 19.7961L13.1535 19.9693L12.9072 20.0514L12.8005 19.8322ZM13.3259 20.2049L13.49 20.4273L13.1839 20.5833L13.0402 20.2992L13.3259 20.2049ZM13.6025 20.1146L13.7979 20.0505L13.9432 20.1958L13.7379 20.3001L13.6025 20.1146ZM14.1492 20.4019L14.3495 20.6021L14.095 20.7885L13.9046 20.5274L14.1492 20.4019ZM14.4086 20.2697L14.5974 20.1737L14.7681 20.2976L14.5769 20.4371L14.4086 20.2697ZM15.0045 20.4692L15.2319 20.6333L15.0029 20.8615L14.7755 20.6383L15.0045 20.4692ZM15.2401 20.2976L15.3993 20.1827L15.589 20.2796L15.4314 20.4363L15.2401 20.2976ZM15.8483 20.4125L16.1102 20.5463L15.928 20.8024L15.6546 20.6021L15.8483 20.4125ZM16.0544 20.2065L16.2185 20.0423L16.4246 20.1088L16.2727 20.3189L16.0544 20.2065ZM16.7037 20.1983L16.9663 20.2804L16.8087 20.5898L16.5239 20.4445L16.7037 20.1983ZM16.8752 19.9619L16.9951 19.7977L17.1978 19.8297L17.0936 20.0341L16.8752 19.9619ZM17.4859 19.8732L17.7659 19.9176L17.6682 20.218L17.3612 20.1187L17.4859 19.8732ZM17.6181 19.6139L17.7141 19.4251H17.9259L17.8529 19.6508L17.6181 19.6139ZM18.2173 19.4251H18.4939L18.4431 19.7444L18.1295 19.6943L18.2173 19.4251ZM18.3076 19.1476L18.3675 18.9621L18.5736 18.9301L18.5383 19.1476H18.3076ZM18.4636 18.6666L18.5153 18.5074L18.6483 18.4639L18.6195 18.642L18.4636 18.6666ZM18.622 18.1807L18.6442 18.1118L18.7107 18.0781L18.6983 18.1561L18.622 18.1807ZM19.5693 17.3287L19.4314 17.3993V17.2532L19.5446 17.1711L19.5693 17.3287ZM19.6152 17.6168L19.6513 17.8442L19.433 17.9156V17.7104L19.6152 17.6168ZM19.4305 16.9117V16.846L19.4847 16.7919L19.4962 16.8641L19.4305 16.9117ZM19.6768 16.2124L19.6612 16.1163L19.7072 16.0531L19.7392 16.1508L19.6768 16.2124ZM20.3031 15.2274L20.4558 15.4359L20.2735 15.6173L20.1693 15.4121L20.3031 15.2274ZM20.1816 14.5896L20.2744 14.4065L20.4385 14.5707L20.3039 14.757L20.1816 14.5896ZM20.4738 14.991L20.638 14.7677L20.8843 15.014L20.6585 15.2389L20.4738 14.991ZM20.8022 14.5403L21.0164 14.2432L21.3858 14.5108L21.0722 14.8186L20.8022 14.5403ZM20.6035 14.3417L20.4082 14.1472L20.537 13.8943L20.7923 14.0799L20.6035 14.3417ZM20.2021 13.9411L20.0527 13.7909L20.1184 13.5898L20.3097 13.7294L20.2021 13.9411ZM20.2079 13.3132L20.29 13.0587L20.5764 13.2049L20.4369 13.479L20.2079 13.3132ZM19.9723 13.1417L19.8081 13.0218L19.8401 12.8273L20.0421 12.9307L19.9723 13.1417ZM19.8853 12.5392L19.9337 12.2355L20.235 12.3323L20.1274 12.6606L19.8853 12.5392ZM19.6259 12.4062L19.4264 12.3044V12.0713L19.6678 12.1534L19.6259 12.4062ZM19.4248 11.7799V11.5049L19.7613 11.5583L19.7113 11.8727L19.4248 11.7799ZM19.4248 11.2234V10.8565H19.8763L19.8073 11.2841L19.4248 11.2234ZM19.4248 10.5799V10.1259L20.0092 10.034L19.9222 10.5799H19.4248ZM19.1473 10.5799H18.7878L18.7328 10.2335L19.1432 10.1686L19.1473 10.5799ZM18.6901 9.95931L18.608 9.46682L19.1416 9.2928V9.89282L18.6901 9.95931ZM18.416 10.0028L18.0548 10.0586L17.9333 9.68433L18.3437 9.54972L18.416 10.0028ZM17.8471 9.42085L17.7035 8.9776L18.2124 8.71822L18.3002 9.2731L17.8471 9.42085ZM17.5836 9.50293L17.2364 9.61621L17.0722 9.29444L17.4515 9.10155L17.5836 9.50293ZM16.9483 9.04737L16.7332 8.62301L17.1904 8.29057L17.3669 8.83396L16.9483 9.04737ZM16.702 9.17296L16.3622 9.34615L16.1463 9.04984L16.5067 8.78799L16.702 9.17296ZM15.983 8.82575L15.7137 8.4572L16.1291 8.04679L16.3794 8.53928L15.983 8.82575ZM15.7589 8.98992L15.4683 9.20087L15.222 8.95462L15.5184 8.65912L15.7589 8.98992ZM15.0201 8.75516L14.6614 8.40795L14.9897 7.95321L15.3427 8.43586L15.0201 8.75516ZM14.8239 8.95134L14.5645 9.20908L14.2428 8.98253L14.4964 8.63204L14.8239 8.95134ZM14.0187 8.81836L13.6419 8.54503L13.9013 8.03612L14.2978 8.43258L14.0187 8.81836ZM13.8545 9.04327L13.6378 9.34205L13.3177 9.17789L13.513 8.79456L13.8545 9.04327ZM13.0706 9.05148L12.6479 8.8356L12.8235 8.29386L13.2857 8.62957L13.0706 9.05148ZM12.945 9.29773L12.7734 9.63426L12.4246 9.52181L12.5608 9.10155L12.945 9.29773ZM12.1603 9.43644L11.7219 9.29444L11.8139 8.71986L12.3113 8.97432L12.1603 9.43644ZM12.0782 9.69993L11.9674 10.0414L11.6136 9.98558L11.6801 9.57516L12.0782 9.69993ZM11.3394 9.94207L10.8469 9.86492V9.31086L11.4108 9.49308L11.3394 9.94207ZM11.2951 10.2162L11.2376 10.5782H10.851V10.1456L11.2951 10.2162ZM11.1925 10.8548L11.1473 11.1356L10.8518 11.1815V10.8532L11.1925 10.8548ZM11.1014 11.4237L11.0677 11.6354L10.8535 11.706V11.4598L11.1014 11.4237ZM10.576 11.7963L10.3142 11.8784L10.2625 11.5501L10.5752 11.5008L10.576 11.7963ZM10.0474 11.9695L9.69854 12.0836L9.56228 11.6642L9.9883 11.5977L10.0474 11.9695ZM10.0917 12.247L10.1344 12.5186L9.88241 12.6475L9.78391 12.3479L10.0917 12.247ZM10.1804 12.8068L10.2132 13.0152L10.0425 13.14L9.9686 12.9143L10.1804 12.8068ZM9.80607 13.3116L9.58034 13.4757L9.43423 13.1868L9.71824 13.0415L9.80607 13.3116ZM9.89637 13.5882L9.96203 13.7901L9.81428 13.937L9.70757 13.7261L9.89637 13.5882ZM9.60743 14.1431L9.39893 14.3499L9.2085 14.0881L9.4802 13.8911L9.60743 14.1431ZM9.197 14.5477L8.94172 14.8022L8.63883 14.4993L8.9803 14.253L9.197 14.5477ZM8.74554 14.9984L8.40817 15.3341L7.94931 15L8.41145 14.6643L8.74554 14.9984ZM8.94172 15.1945L9.20932 15.4621L8.99425 15.7593L8.63554 15.4991L8.94172 15.1945ZM9.40796 15.6608L9.6025 15.8553L9.47363 16.1081L9.21835 15.9226L9.40796 15.6608ZM9.80854 16.0613L9.95793 16.2115L9.89308 16.4126L9.70101 16.2731L9.80854 16.0613ZM9.80279 16.6893L9.71496 16.9585L9.42684 16.8107L9.58034 16.5259L9.80279 16.6893ZM10.0384 16.8608L10.2025 16.9823L10.1689 17.1924L9.96203 17.0865L10.0384 16.8608ZM10.1262 17.4805L10.0802 17.7678L9.7757 17.6693L9.87831 17.3541L10.1262 17.4805ZM10.3856 17.6135L10.5851 17.7153V17.9312L10.347 17.854L10.3856 17.6135ZM10.5859 18.2226V18.5041L10.251 18.4516L10.3019 18.1372L10.5859 18.2226ZM10.5859 18.7783V19.1452H10.1377L10.2066 18.7183L10.5859 18.7783ZM10.5859 19.4226V19.8995L10.0014 19.9914L10.0917 19.4284L10.5859 19.4226ZM10.8633 19.4226H11.222L11.2795 19.7854L10.8641 19.8511L10.8633 19.4226ZM11.323 20.0596L11.3993 20.5398L10.8658 20.7138V20.131L11.323 20.0596ZM11.5972 20.0169L11.9608 19.9594L12.0774 20.3181L11.6669 20.4519L11.5972 20.0169ZM12.1627 20.5816L12.3064 21.024L11.7975 21.2834L11.7145 20.7326L12.1627 20.5816ZM12.4262 20.4954L12.7661 20.3838L12.9302 20.7072L12.5576 20.8968L12.4262 20.4954ZM13.055 20.9543L13.2709 21.3803L12.8202 21.7086L12.6438 21.1644L13.055 20.9543ZM13.3012 20.8287L13.6476 20.6522L13.8644 20.9485L13.4974 21.2153L13.3012 20.8287ZM14.0277 21.1726L14.3035 21.551L13.8808 21.9721L13.6238 21.4656L14.0277 21.1726ZM14.2518 21.0084L14.5424 20.7975L14.8001 21.0552L14.5054 21.3565L14.2518 21.0084ZM14.9963 21.2547L15.3419 21.6003L15.0135 22.055L14.6688 21.5822L14.9963 21.2547ZM15.1925 21.0593L15.4535 20.8L15.7597 21.0224L15.5118 21.377L15.1925 21.0593ZM15.9838 21.1849L16.3614 21.4591L16.102 21.968L15.7047 21.5715L15.9838 21.1849ZM16.148 20.9608L16.3556 20.6744L16.6782 20.8385L16.4903 21.2079L16.148 20.9608ZM16.9253 20.9658L17.3505 21.1841L17.1798 21.7102L16.7217 21.377L16.9253 20.9658ZM17.0509 20.7195L17.229 20.3698L17.5787 20.4823L17.4375 20.9173L17.0509 20.7195ZM17.8422 20.5677L18.2838 20.7097L18.1886 21.3023L17.6912 21.0487L17.8422 20.5677ZM17.9284 20.3042L18.0392 19.9627L18.3946 20.0185L18.3281 20.433L17.9284 20.3042ZM18.6671 20.062L19.1539 20.1392V20.7006L18.5924 20.5192L18.6671 20.062ZM18.7107 19.7887L18.7689 19.4259H19.1531V19.8585L18.7107 19.7887ZM18.8141 19.1485L18.8559 18.8858L19.1514 18.8398V19.1485H18.8141ZM18.9019 18.5977L18.9388 18.3678L19.1506 18.2981V18.5591L18.9019 18.5977ZM19.4273 18.2078L19.6891 18.1257L19.7441 18.4696L19.4281 18.5189L19.4273 18.2078ZM19.9559 18.0346L20.3047 17.9205L20.4467 18.3564L20.0174 18.4237L19.9559 18.0346ZM19.9124 17.7572L19.8689 17.4855L20.1217 17.3566L20.2194 17.657L19.9124 17.7572ZM19.8237 17.1973L19.7909 16.9889L19.9616 16.8641L20.0347 17.0898L19.8237 17.1973ZM20.1972 16.6925L20.4172 16.5333L20.5625 16.8206L20.285 16.9626L20.1972 16.6925ZM20.1077 16.4159L20.0462 16.2271L20.1898 16.0843L20.29 16.283L20.1077 16.4159ZM20.3959 15.8783L20.6117 15.664L20.7956 15.916L20.5173 16.118L20.3959 15.8783ZM20.8104 15.4679L21.0673 15.2126L21.3612 15.5073L21.0197 15.7535L20.8104 15.4679ZM21.2635 15.0172L21.6017 14.6799L22.0507 15.0082L21.5885 15.3439L21.2635 15.0172ZM21.811 14.4821L22.2354 14.0585L22.8978 14.3983L22.2961 14.835L21.811 14.4821ZM21.5836 14.3179L21.1781 14.0232L21.4449 13.6547L21.9752 13.9239L21.5836 14.3179ZM20.954 13.8607L20.6618 13.6456L20.8219 13.3329L21.1937 13.5233L20.954 13.8607ZM20.9491 13.0891L21.1773 12.6418L21.7109 12.8141L21.3595 13.3001L20.9491 13.0891ZM20.7029 12.9627L20.3745 12.7985L20.496 12.4251L20.9064 12.558L20.7029 12.9627ZM20.5797 12.1558L20.7234 11.7126L21.2881 11.8021L21.0328 12.3019L20.5797 12.1558ZM20.3162 12.0738L19.9731 11.9638L20.0306 11.6059L20.4467 11.6724L20.3162 12.0738ZM20.0749 11.335L20.1504 10.8639H20.7094L20.5329 11.4072L20.0749 11.335ZM20.1947 10.5872L20.2891 9.99707L21.0279 9.88133L20.7989 10.5872H20.1947ZM20.3359 9.70896L20.4722 8.8594L21.4671 8.53107L21.1256 9.58337L20.3359 9.70896ZM20.0478 9.7541L19.4166 9.8526V9.20497L20.1775 8.95873L20.0478 9.7541ZM19.4141 8.91358V8.11081L20.3926 7.61257L20.2284 8.64845L19.4141 8.91358ZM19.1375 9.00387L18.5629 9.19266L18.4685 8.59346L19.1383 8.25199L19.1375 9.00387ZM18.4201 8.30535L18.292 7.49683L19.1334 6.88614V7.9409L18.4201 8.30535ZM18.1607 8.43832L17.6099 8.71822L17.4195 8.13133L18.04 7.67988L18.1607 8.43832ZM17.3292 7.85389L17.0829 7.09709L17.8291 6.35342L17.9932 7.37289L17.3292 7.85389ZM17.0936 8.02545L16.6011 8.38415L16.3302 7.84897L16.8654 7.31707L17.0936 8.02545ZM16.1964 7.58713L15.8089 6.82212L16.4262 5.96928L16.7677 7.01255L16.1964 7.58713ZM15.9904 7.79233L15.5413 8.23968L15.1621 7.71517L15.6275 7.07165L15.9904 7.79233ZM14.9889 7.48288L14.5161 6.83443L15.0086 5.86175L15.4822 6.79667L14.9889 7.48288ZM14.8182 7.71928L14.4628 8.21177L14.0334 7.78248L14.3749 7.11269L14.8182 7.71928ZM13.8274 7.57563L13.2487 7.00106L13.5697 6.01196L14.1919 6.8648L13.8274 7.57563ZM13.6953 7.83337L13.4145 8.38333L12.9155 8.02052L13.1519 7.28999L13.6953 7.83337ZM12.679 7.84897L12.0314 7.37864L12.1956 6.33701L12.9286 7.07L12.679 7.84897ZM12.5896 8.12641L12.3991 8.71084L11.8615 8.43504L11.9821 7.6848L12.5896 8.12641ZM11.6046 8.30206L10.8444 7.91546V6.85823L11.731 7.50504L11.6046 8.30206ZM11.5586 8.59017L11.4584 9.21236L10.8494 9.01618V8.22573L11.5586 8.59017ZM10.5736 8.92671L9.81018 8.68047L9.63944 7.60683L10.5654 8.07962L10.5736 8.92671ZM10.5736 9.2181V9.8247L9.97435 9.7303L9.85697 8.99156L10.5736 9.2181ZM10.5736 10.1054V10.5823H10.1081L10.0187 10.0176L10.5736 10.1054ZM10.5736 10.8589V11.2291L10.2173 11.2849L10.15 10.8589H10.5736ZM9.94398 11.3276L9.47527 11.4007L9.29879 10.8589H9.87338L9.94398 11.3276ZM9.197 11.4442L8.59532 11.5378L8.25138 10.8581H9.00575L9.197 11.4442ZM9.28401 11.7118L9.43423 12.1739L8.99097 12.3184L8.72748 11.7988L9.28401 11.7118ZM9.52042 12.4374L9.63123 12.7788L9.30782 12.943L9.11738 12.5679L9.52042 12.4374ZM9.06074 13.0694L8.62323 13.2919L8.29489 12.8388L8.85389 12.6565L9.06074 13.0694ZM9.18633 13.3157L9.3505 13.644L9.04268 13.8673L8.7874 13.5184L9.18633 13.3157ZM8.81941 14.0306L8.44264 14.3048L8.03878 13.9001L8.53868 13.6456L8.81941 14.0306ZM8.21609 14.4697L7.71619 14.8326L7.09481 14.3811L7.7794 14.0331L8.21609 14.4697ZM7.47732 15.0033L6.82064 15.4802L5.88652 14.9984L6.82147 14.5223L7.47732 15.0033ZM7.71291 15.1748L8.20542 15.5352L7.77447 15.9678L7.09891 15.6222L7.71291 15.1748ZM8.43608 15.7002L8.8309 15.9875L8.55838 16.37L8.03632 16.1024L8.43608 15.7002ZM9.055 16.15L9.34558 16.3609L9.18141 16.6893L8.8071 16.498L9.055 16.15ZM9.055 16.9347L8.83419 17.3689L8.29981 17.1965L8.64211 16.7237L9.055 16.9347ZM9.30125 17.0611L9.62959 17.2294L9.51303 17.5881L9.10261 17.4551L9.30125 17.0611ZM9.42602 17.8515L9.28237 18.2948L8.71845 18.2053L8.97291 17.7054L9.42602 17.8515ZM9.69033 17.9336L10.0351 18.0444L9.97845 18.4015L9.55982 18.335L9.69033 17.9336ZM9.93659 18.6724L9.86107 19.1427H9.29879L9.47527 18.5993L9.93659 18.6724ZM9.81675 19.4201L9.71906 20.0276L8.97373 20.1441L9.2085 19.4201H9.81675ZM9.6731 20.3157L9.5393 21.1472L8.54197 21.4755L8.87769 20.4413L9.6731 20.3157ZM9.96122 20.2705L10.5924 20.172V20.8024L9.8348 21.0487L9.96122 20.2705ZM10.5941 21.0913V21.8933L9.61892 22.3907L9.78309 21.3557L10.5941 21.0913ZM10.8715 21.0002L11.4461 20.8123L11.5414 21.4115L10.8707 21.7529L10.8715 21.0002ZM11.5881 21.6988L11.7162 22.5081L10.8756 23.1188V22.0632L11.5881 21.6988ZM11.8483 21.5666L12.3983 21.2867L12.5896 21.8736L11.9682 22.325L11.8483 21.5666ZM12.679 22.151L12.9294 22.9201L12.1808 23.6753L12.0166 22.6411L12.679 22.151ZM12.9155 21.9795L13.403 21.6257L13.6805 22.1724L13.1494 22.701L12.9155 21.9795ZM13.8118 22.4441L14.1943 23.1984L13.582 24.0447L13.2454 23.008L13.8118 22.4441ZM14.0187 22.2389L14.4751 21.7841L14.8477 22.2955L14.3766 22.9456L14.0187 22.2389ZM15.0193 22.5261L15.4929 23.1746L14.9922 24.1596L14.5177 23.223L15.0193 22.5261ZM15.19 22.2906L15.5463 21.7981L15.9748 22.2274L15.6333 22.8972L15.19 22.2906ZM16.1808 22.4342L16.7603 23.0129L16.4385 23.9979L15.8188 23.15L16.1808 22.4342ZM16.3138 22.174L16.5937 21.6241L17.0936 21.9869L16.8564 22.7174L16.3138 22.174ZM17.3292 22.1584L17.9793 22.6304L17.8151 23.6728L17.0763 22.9341L17.3292 22.1584ZM17.4195 21.881L17.6041 21.3113L18.1467 21.5896L18.0285 22.3242L17.4195 21.881ZM18.4045 21.7226L19.1621 22.11V23.15L18.2813 22.5073L18.4045 21.7226ZM18.4504 21.4345L18.553 20.795L19.1597 20.9912V21.7989L18.4504 21.4345ZM19.4355 21.0807L20.1997 21.3269L20.3729 22.4194L19.4379 21.9409L19.4355 21.0807ZM19.4355 20.7893V20.1827L20.0347 20.2771L20.1529 21.0199L19.4355 20.7893ZM19.4355 19.902V19.4251H19.9017L19.9912 19.9898L19.4355 19.902ZM19.4355 19.1476V18.7955L19.7942 18.7397L19.8582 19.1501L19.4355 19.1476ZM20.0667 18.6962L20.5395 18.6231L20.7094 19.1476H20.1348L20.0667 18.6962ZM20.817 18.5796L21.4129 18.486L21.7486 19.1476H21.0016L20.817 18.5796ZM20.7299 18.312L20.574 17.8335L21.0098 17.6907L21.2815 18.2258L20.7299 18.312ZM20.4886 17.5733L20.3778 17.2318L20.6938 17.0677L20.8834 17.4411L20.4886 17.5733ZM20.9409 16.9445L21.385 16.718L21.7133 17.1719L21.1543 17.3549L20.9409 16.9445ZM20.8153 16.6983L20.6511 16.37L20.9655 16.1409L21.2208 16.4906L20.8153 16.6983ZM21.1888 15.9801L21.5656 15.7059L21.9694 16.1098L21.4695 16.365L21.1888 15.9801ZM21.7929 15.5409L22.292 15.1781L22.9134 15.6296L22.2296 15.9776L21.7929 15.5409ZM22.5317 15.0066L23.1736 14.5403L24.1094 15.0172L23.1925 15.4851L22.5317 15.0066ZM23.4248 14.3581L24.3688 13.6719L25.8315 14.1439L24.4164 14.8654L23.4248 14.3581ZM23.1482 14.2161L22.4414 13.8541L23.0513 13.2467L24.0421 13.5668L23.1482 14.2161ZM22.182 13.7236L21.6074 13.4298L21.9867 12.9061L22.7533 13.1523L22.182 13.7236ZM22.1582 12.6697L22.6294 12.0196L23.7162 12.1837L22.9717 12.9225L22.1582 12.6697ZM21.8816 12.5802L21.307 12.3939L21.5828 11.8538L22.3257 11.9712L21.8816 12.5802ZM21.7117 11.5952L22.0835 10.8655H23.1227L22.5038 11.7208L21.7117 11.5952ZM21.4236 11.5501L20.8104 11.445L21.0016 10.8573H21.7691L21.4236 11.5501ZM21.0952 10.5889L21.3415 9.83455L22.3823 9.67038L21.9152 10.5872L21.0952 10.5889ZM21.4367 9.53905L21.797 8.42847L23.2582 7.95075L22.5366 9.3675L21.4367 9.53905ZM21.9038 8.1026L22.3963 6.59639L24.4968 5.52931L23.4396 7.60354L21.9038 8.1026ZM21.5754 8.20931L20.5239 8.55324L20.6996 7.45825L22.0392 6.7663L21.5754 8.20931ZM20.7546 7.11925L21.0107 5.52603L22.8921 4.15854L22.1631 6.40185L20.7546 7.11925ZM20.4492 7.27521L19.4158 7.80218V6.68668L20.6955 5.75668L20.4492 7.27521ZM19.4125 6.3444V4.78483L21.119 3.07258L20.7513 5.36105L19.4125 6.3444ZM19.1358 6.5455L18.2469 7.19149L18.0728 6.10964L19.1293 5.05734L19.1358 6.5455ZM18.0228 5.77638L17.7617 4.13473L19.1268 2.24683L19.1317 4.67319L18.0228 5.77638ZM17.7765 6.01771L16.9877 6.80324L16.6273 5.69512L17.5303 4.44993L17.7765 6.01771ZM16.5214 5.36925L16.0289 3.86304L17.096 1.76255L17.4605 4.06086L16.5214 5.36925ZM16.3203 5.64751L15.6686 6.55042L15.167 5.56543L15.8541 4.21764L16.3203 5.64751ZM15.0119 5.25434L14.283 3.81133L15.0045 1.5951L15.7367 3.83267L15.0119 5.25434ZM14.8568 5.56051L14.3331 6.58736L13.6764 5.68445L14.1623 4.18727L14.8568 5.56051ZM13.4736 5.4103L12.551 4.13966L12.9335 1.75926L13.9842 3.83185L13.4736 5.4103ZM13.3677 5.73863L13.0279 6.77369L12.2522 5.99801L12.4886 4.52463L13.3677 5.73863ZM11.9608 6.09404L11.7843 7.19477L10.8461 6.51349V4.97608L11.9608 6.09404ZM10.5654 6.31156L9.28483 5.38075L8.91627 3.05206L10.5621 4.69782L10.5654 6.31156ZM10.5654 6.65467V7.77099L9.58034 7.267L9.34311 5.76818L10.5654 6.65467ZM9.27745 7.11023L7.84342 6.37641L7.11779 4.15115L9.02709 5.53506L9.27745 7.11023ZM9.3308 7.44923L9.51057 8.58361L8.44839 8.24379L7.96409 6.75235L9.3308 7.44923ZM9.559 8.8906L9.68459 9.68351L8.87523 9.55711L8.55428 8.57212L9.559 8.8906ZM9.73055 9.97162L9.82742 10.5815H9.20932L8.97209 9.85096L9.73055 9.97162ZM8.91791 10.5815H8.11102L7.63328 9.63919L8.66427 9.80335L8.91791 10.5815ZM7.80074 10.5815H6.6458L5.74287 9.33959L7.29756 9.58584L7.80074 10.5815ZM7.9411 10.8581L8.30802 11.5829L7.47322 11.7134L6.84937 10.8581H7.9411ZM8.44018 11.8431L8.72501 12.4062L8.12169 12.6032L7.65627 11.9662L8.44018 11.8431ZM7.84424 12.6943L7.08167 12.9405L6.31418 12.1723L7.34845 12.0081L7.84424 12.6943ZM8.01662 12.9299L8.37369 13.4224L7.83357 13.6974L7.30166 13.1655L8.01662 12.9299ZM7.57254 13.8254L6.84363 14.1972L6.00226 13.5865L7.00534 13.2582L7.57254 13.8254ZM6.56618 14.3384L5.58116 14.8416L4.24482 14.1611L5.67392 13.6941L6.56618 14.3384ZM5.27416 14.9951L3.80566 15.7437L1.58937 15.0287L3.87626 14.2801L5.27416 14.9951ZM5.5787 15.151L6.57275 15.6608L5.64026 16.3388L4.17751 15.8668L5.5787 15.151ZM6.84937 15.8019L7.57008 16.1713L6.97414 16.7656L5.96942 16.4373L6.84937 15.8019ZM7.83029 16.3043L8.39421 16.5932L8.02073 17.1087L7.26719 16.8625L7.83029 16.3043ZM7.85327 17.341L7.38293 17.9911L6.30761 17.8204L7.04638 17.0816L7.85327 17.341ZM8.13072 17.4305L8.70531 17.6168L8.43115 18.1594L7.69239 18.042L8.13072 17.4305ZM8.30064 18.4155L7.92879 19.1443H6.88877L7.5077 18.2899L8.30064 18.4155ZM8.58793 18.4606L9.19782 18.5575L9.00575 19.1485H8.23825L8.58793 18.4606ZM8.91627 19.4218L8.66591 20.1942L7.62097 20.3583L8.09789 19.4226L8.91627 19.4218ZM8.56987 20.4889L8.21445 21.5814L6.75333 22.0591L7.46583 20.6637L8.56987 20.4889ZM8.10856 21.9072L7.61605 23.4135L5.51467 24.4805L6.57193 22.4055L8.10856 21.9072ZM8.4369 21.8005L9.49005 21.4591L9.31439 22.5532L7.96983 23.2386L8.4369 21.8005ZM9.26185 22.889L9.00575 24.4863L7.11779 25.8554L7.84671 23.6129L9.26185 22.889ZM9.56721 22.733L10.5982 22.2077V23.3232L9.32177 24.2507L9.56721 22.733ZM10.6007 23.6655V25.2406L8.88754 26.9463L9.25857 24.6381L10.6007 23.6655ZM10.8781 23.4644L11.7671 22.8184L11.9395 23.9109L10.8806 24.9648L10.8781 23.4644ZM11.992 24.2499L12.2497 25.8792L10.8847 27.7671L10.8797 25.358L11.992 24.2499ZM12.2341 24.0086L13.0254 23.2206L13.3809 24.3155L12.4779 25.5616L12.2341 24.0086ZM13.4868 24.6422L13.9793 26.1476L12.9122 28.2489L12.5477 25.9506L13.4868 24.6422ZM13.6887 24.364L14.3355 23.4701L14.8371 24.4551L14.1541 25.7947L13.6887 24.364ZM14.9922 24.7654L15.7219 26.2059L15.0045 28.4139L14.2756 26.1714L14.9922 24.7654ZM15.1473 24.46L15.676 23.4291L16.3326 24.332L15.8401 25.839L15.1473 24.46ZM16.5346 24.6012L17.4605 25.871L17.0763 28.2654L16.0215 26.1854L16.5346 24.6012ZM16.6405 24.2729L16.9803 23.228L17.7576 24.0061L17.5212 25.4836L16.6405 24.2729ZM18.054 23.9101L18.2313 22.8085L19.167 23.4882V25.0256L18.054 23.9101ZM19.4445 23.6901L20.725 24.6209L21.0944 26.9496L19.4478 25.3087L19.4445 23.6901ZM19.4445 23.347V22.2479L20.4295 22.7535L20.6643 24.231L19.4445 23.347ZM20.7357 22.9103L22.1738 23.649L22.8896 25.8521L20.9819 24.4666L20.7357 22.9103ZM20.6823 22.5713L20.4976 21.4238L21.559 21.7661L22.0515 23.2788L20.6823 22.5713ZM20.4508 21.111L20.3253 20.3181L21.1338 20.4462L21.4556 21.4312L20.4508 21.111ZM20.2801 20.03L20.1833 19.4201H20.8005L21.0378 20.1499L20.2801 20.03ZM21.0919 19.4201H21.8931L22.37 20.3608L21.3489 20.1966L21.0919 19.4201ZM22.2009 19.4201H23.3624L24.2653 20.6621L22.7008 20.4158L22.2009 19.4201ZM22.0573 19.1485L21.6985 18.4417L22.5498 18.3096L23.1621 19.1485H22.0573ZM21.5647 18.1823L21.2717 17.6078L21.8824 17.4083L22.3593 18.0609L21.5647 18.1823ZM22.1599 17.3139L22.9224 17.0677L23.7055 17.8507L22.6671 18.0149L22.1599 17.3139ZM21.9883 17.0783L21.6304 16.5858L22.1705 16.3109L22.7024 16.8428L21.9883 17.0783ZM22.4307 16.1803L23.1605 15.8093L24.001 16.42L22.9979 16.7484L22.4307 16.1803ZM23.4371 15.6673L24.4073 15.1748L25.7347 15.8545L24.3261 16.315L23.4371 15.6673ZM24.7127 15.0181L26.1976 14.2613L28.4139 14.9762L26.1057 15.7314L24.7127 15.0181ZM26.1738 13.9625L24.6388 13.47L25.9193 12.54L28.2481 12.9085L26.1738 13.9625ZM24.3121 13.3616L23.2639 13.0235L24.0503 12.2404L25.5278 12.4751L24.3121 13.3616ZM24.2932 11.9982L25.4424 10.8581H27.7622L25.8545 12.2445L24.2932 11.9982ZM23.9542 11.9449L22.805 11.7618L23.4617 10.8589H25.0501L23.9542 11.9449ZM23.6571 10.5815L24.5691 9.32153L26.9643 8.94723L25.3226 10.5815H23.6571ZM23.3148 10.5815H22.2214L22.7139 9.6121L24.1865 9.38227L23.3148 10.5815ZM22.8707 9.31086L23.6275 7.82516L25.8438 7.1012L24.4197 9.07118L22.8707 9.31086ZM23.8057 7.47549L24.8366 5.45298L25.9629 6.7663L23.8057 7.47549ZM22.5095 6.21635L23.2204 4.02885L24.5608 5.17144L22.5095 6.21635ZM21.0722 5.13039L21.4309 2.89447L22.9085 3.79737L21.0722 5.13039ZM19.4076 4.39165L19.4026 2.01947L21.0903 2.71635L19.4076 4.39165ZM17.6994 3.73992L17.3448 1.49824L19.03 1.90127L17.6994 3.73992ZM15.9107 3.483L15.1999 1.2955L16.9557 1.43093L15.9107 3.483ZM14.1049 3.45837L13.078 1.43093L14.8083 1.29468L14.1049 3.45837ZM12.3203 3.82364L10.9249 1.91276L12.6946 1.48593L12.3203 3.82364ZM10.5604 4.30382L8.95567 2.69911L10.5555 2.03424L10.5604 4.30382ZM8.96634 5.14845L7.10466 3.79655L8.60599 2.87477L8.96634 5.14845ZM7.49292 6.195L5.46542 5.15666L6.78945 4.02721L7.49292 6.195ZM7.6144 6.56848L8.12251 8.13462L6.62528 7.65361L5.53766 5.50797L7.6144 6.56848ZM8.2284 8.45638L8.56823 9.50211L7.47815 9.32892L6.80259 7.99672L8.2284 8.45638ZM7.14078 9.2772L5.50811 9.01864L4.13565 7.13813L6.43402 7.87688L7.14078 9.2772ZM5.35214 9.2772L6.30269 10.5807H4.71927L3.05212 8.91276L5.35214 9.2772ZM6.50544 10.8573L7.16212 11.7602L6.06875 11.9318L4.99508 10.8573H6.50544ZM5.73138 11.9843L4.13975 12.2305L2.24687 10.8548H4.60435L5.73138 11.9843ZM5.97763 12.2305L6.78863 13.0415L5.72235 13.3863L4.45413 12.4645L5.97763 12.2305ZM5.40304 13.4946L3.90334 13.9871L1.76175 12.8905L4.07162 12.5293L5.40304 13.4946ZM3.82947 16.0416L5.36528 16.5341L4.08475 17.4641L1.75518 17.0956L3.82947 16.0416ZM5.69198 16.6425L6.75251 16.9848L5.9686 17.7695L4.47137 17.5322L5.69198 16.6425ZM5.72235 18.0116L4.58055 19.1485H2.24687L4.15452 17.7654L5.72235 18.0116ZM6.06218 18.065L7.19988 18.2447L6.5432 19.1476H4.9762L6.06218 18.065ZM6.34373 19.4259L5.41863 20.7056L3.03817 21.0774L4.69711 19.4259H6.34373ZM6.68602 19.4259H7.78514L7.28114 20.4109L5.80361 20.6415L6.68602 19.4259ZM7.12846 20.7203L6.37903 22.1863L4.16273 22.9103L5.57295 20.9617L7.12846 20.7203ZM6.20254 22.5376L5.17238 24.5585L4.04617 23.2452L6.20254 22.5376ZM7.49867 23.7927L6.78945 25.9785L5.44982 24.836L7.49867 23.7927ZM8.94254 24.8762L8.58219 27.1162L7.10466 26.2133L8.94254 24.8762ZM10.6031 25.6379L10.608 27.9928L8.93351 27.3009L10.6031 25.6379ZM12.3113 26.2724L12.6659 28.5141L10.9815 28.1078L12.3113 26.2724ZM14.095 26.5244L14.8059 28.7119L13.0501 28.5748L14.095 26.5244ZM15.9009 26.5589L16.9237 28.5765L15.1999 28.7135L15.9009 26.5589ZM17.6912 26.187L19.0866 28.0946L17.3152 28.5182L17.6912 26.187ZM19.4502 25.7019L21.055 27.3066L19.4543 27.9707L19.4502 25.7019ZM21.0443 24.8573L22.9052 26.2092L21.4006 27.1302L21.0443 24.8573ZM22.5219 23.8313L24.5297 24.8598L23.2163 25.9802L22.5219 23.8313ZM22.4004 23.4578L21.8857 21.8695L23.3714 22.3489L24.4697 24.515L22.4004 23.4578ZM21.779 21.5453L21.44 20.5004L22.5194 20.6719L23.1941 22.0025L21.779 21.5453ZM22.8576 20.7244L24.4993 20.9846L25.8717 22.8652L23.566 22.1215L22.8576 20.7244ZM24.6561 20.7285L23.7047 19.4251H25.2881L26.9553 21.093L24.6561 20.7285ZM23.5069 19.1476L22.8559 18.2579L23.9526 18.0937L25.0123 19.1485L23.5069 19.1476ZM24.2957 18.0362L25.8914 17.79L27.7654 19.1509H25.4039L24.2957 18.0362ZM24.0495 17.79L23.2229 16.9675L24.2826 16.6211L25.5705 17.5569L24.0495 17.79ZM24.6085 16.5103L26.086 16.0269L28.2481 17.1341L25.9579 17.492L24.6085 16.5103ZM28.5149 12.6623L26.2436 12.3061L28.1028 10.9525L28.5149 12.6623ZM27.983 10.5774H25.7215L27.3214 8.98335L27.983 10.5774ZM27.1514 8.63778L24.8022 9.00551L26.1976 7.08068L27.1514 8.63778ZM5.18797 5.42835L6.25508 7.53377L4.01088 6.80898L5.18797 5.42835ZM2.69998 8.9579L4.3269 10.5815H2.02852L2.69998 8.9579ZM1.90458 10.9525L3.75231 12.2946L1.50072 12.6467L1.90458 10.9525ZM1.49415 17.3402L3.7679 17.7005L1.90704 19.0524L1.49415 17.3402ZM2.02688 19.4251H4.30556L2.69341 21.0306L2.02688 19.4251ZM2.86743 21.3844L5.1929 21.0208L3.81469 22.9259L2.86743 21.3844ZM24.8161 24.5856L23.7441 22.4712L25.9973 23.1976L24.8161 24.5856ZM27.3099 21.0561L25.6821 19.4284H27.9805L27.3099 21.0561ZM28.1045 19.0565L26.2764 17.7268L28.5042 17.3788L28.1045 19.0565Z" fill="url(#paint0_linear_432_12423)" stroke="url(#paint1_linear_432_12423)" stroke-width="0.07"/>
<defs>
<linearGradient id="paint0_linear_432_12423" x1="1.00329" y1="1.00244" x2="42.9076" y2="41.2229" gradientUnits="userSpaceOnUse">
<stop stop-color="#B200C1"/>
<stop offset="1" stop-color="#130637"/>
</linearGradient>
<linearGradient id="paint1_linear_432_12423" x1="1.00329" y1="1.00244" x2="42.9076" y2="41.2229" gradientUnits="userSpaceOnUse">
<stop stop-color="#B200C1"/>
<stop offset="1" stop-color="#130637"/>
</linearGradient>
</defs>
</svg>
