<svg width="33" height="23" viewBox="0 0 33 23" fill="none" xmlns="http://www.w3.org/2000/svg">
<path d="M23 20.2759C28.5228 20.2759 33 15.7987 33 10.2759C33 4.75303 28.5228 0.275879 23 0.275879C17.4772 0.275879 13 4.75303 13 10.2759C13 15.7987 17.4772 20.2759 23 20.2759Z" fill="#F3BA2C"/>
<path d="M22.934 4.59424L24.3269 6.02064L20.8196 9.5279L19.4268 8.13507L22.934 4.59424Z" fill="white"/>
<path d="M25.0485 6.70868L26.4413 8.13508L20.8196 13.7568L19.4268 12.3639L25.0485 6.70868Z" fill="white"/>
<path d="M18.7051 8.82312L20.0979 10.2495L18.7051 11.6424L17.3123 10.2495L18.7051 8.82312Z" fill="white"/>
<path d="M27.1627 8.82312L28.5555 10.2495L22.9339 15.8712L21.541 14.4784L27.1627 8.82312Z" fill="white"/>
<path d="M1 10.2759C1 4.75303 5.47715 0.275879 11 0.275879V0.275879C16.5228 0.275879 21 4.75303 21 10.2759V10.2759C21 15.7987 16.5228 20.2759 11 20.2759V20.2759C5.47715 20.2759 1 15.7987 1 10.2759V10.2759Z" fill="white" fill-opacity="0.2"/>
<path d="M20.8798 8.70634L20.5122 7.18195L19.9106 5.73144L19.0898 4.39466L18.0696 3.20212L16.8758 2.18371L15.5372 1.36289L14.0867 0.763097L12.5623 0.39783L11.0132 0.275879L9.43306 0.400762L7.90862 0.767788L6.45923 1.36992L5.12184 2.19075L3.92926 3.21092L2.9073 4.40639L2.08645 5.74316L1.48723 7.19309L1.12195 8.71748L1 10.2823L1.1243 11.8466L1.49192 13.371L2.09349 14.8203L2.91434 16.1577L3.93454 17.3502L5.12887 18.3686L6.46744 19.1895L7.91742 19.7892L9.44185 20.1539L11.0062 20.2759L12.5705 20.1516L14.0949 19.784L15.5443 19.1824L16.8817 18.3616L18.0743 17.3414L19.0927 16.1471L19.9135 14.8086L20.5128 13.3587L20.878 11.8343L21 10.2694L20.8798 8.70634ZM19.1842 10.9255L20.7965 10.3978L20.6951 11.6994L19.1842 10.9255ZM18.0631 14.5964L19.6644 14.8496L19.0194 15.905L18.0631 14.5964ZM1.31016 11.6719L1.21166 10.4406L2.75427 10.9384L1.31016 11.6719ZM2.80704 9.63622L1.2099 10.1586L1.31016 8.86875L2.80704 9.63622ZM3.94333 5.96185L2.34209 5.70857L2.98704 4.65322L3.94333 5.96185ZM20.6963 8.88517L20.7942 10.1164L19.2516 9.61863L20.6963 8.88517ZM13.9823 19.3847L12.9656 17.9911L13.1415 16.8853L13.9776 17.7219L13.9823 19.3847ZM8.02354 1.16999L9.04257 2.56657L8.86667 3.67117L8.02706 2.8351L8.02354 1.16999ZM14.6167 10.8645L14.5399 10.9413L14.5036 10.8294L14.5622 10.752L14.6167 10.8645ZM14.4836 11.4092L14.391 11.4766L14.3763 11.3834L14.4514 11.3089L14.4836 11.4092ZM13.9682 12.4235L13.851 12.4616L13.8668 12.3637L13.9665 12.3133L13.9682 12.4235ZM7.75735 11.8249L7.84764 11.8906V11.9949L7.73859 11.9392L7.75735 11.8249ZM7.558 11.3007L7.62895 11.3717L7.61253 11.4749L7.52224 11.4092L7.558 11.3007ZM7.38914 9.70482L7.46947 9.62508L7.50289 9.72768L7.44426 9.81035L7.38914 9.70482ZM7.52224 9.14783L7.61487 9.08041L7.63129 9.18418L7.558 9.25747L7.52224 9.14783ZM8.03761 8.13352L8.15488 8.09483L8.13905 8.19215L8.03761 8.24375V8.13352ZM14.2526 8.73331L14.1606 8.66647V8.57443L14.269 8.63012L14.2526 8.73331ZM14.4502 9.2563L14.3804 9.18653L14.3968 9.08334L14.4854 9.14783L14.4502 9.2563ZM14.6648 10.2712L14.5892 10.375L14.5452 10.2876L14.598 10.1838L14.6648 10.2712ZM7.34517 10.2858L7.41494 10.1891L7.4595 10.2776L7.41025 10.375L7.34517 10.2858ZM13.749 11.4151L13.5385 11.8255L13.2453 12.2283L12.9522 12.5214L12.5552 12.8105L12.1448 13.0204L11.6628 13.1781L11.2747 13.2367H10.7728L10.3155 13.1646L9.83293 13.0133L9.47762 12.831L9.07423 12.5378L8.74647 12.2107L8.45976 11.8179L8.26393 11.4309L8.11501 10.9724L8.04289 10.5157V10.0525L8.11911 9.57759L8.26041 9.14255L8.47032 8.73214L8.72947 8.37391L9.10061 8.00395L9.4524 7.74832L9.86283 7.53843L10.2733 7.40416L10.8127 7.31973H11.236L11.6933 7.39244L12.1073 7.52611L12.5863 7.77119L12.9322 8.02271L13.2594 8.34987L13.5256 8.71455L13.7537 9.16425L13.8909 9.58756L13.9636 10.0449V10.5204L13.8914 10.9706L13.749 11.4151ZM13.3585 7.94122L13.3497 7.92421H13.3532L13.3585 7.94004V7.94122ZM11.5315 7.00313L11.5145 6.99434H11.5215L11.5356 7.0043L11.5315 7.00313ZM9.50283 7.31973H9.48759L9.49227 7.3127H9.50752L9.50283 7.31973ZM9.04609 12.9664H9.04198H9.04609ZM9.97658 13.4355L9.98185 13.439H9.97892L9.97482 13.4349L9.97658 13.4355ZM10.9985 13.6032L10.9921 13.6061L10.9985 13.6032ZM12.0281 13.4372H12.0322H12.0287H12.0281ZM12.9533 12.9682L12.9498 12.9746L12.9533 12.9682ZM14.408 10.0156L14.4291 9.94989L14.4655 9.99973L14.4332 10.0642L14.408 10.0156ZM13.6053 8.06786L13.583 7.99926L13.6417 8.01802L13.6534 8.09248L13.6053 8.06786ZM13.5074 7.7665L13.4769 7.67152L13.5901 7.68969L13.6071 7.79874L13.5074 7.7665ZM13.2729 7.69145L13.2183 7.67386L13.1949 7.62696L13.2535 7.63692L13.2729 7.69145ZM13.0841 7.40944L13.0372 7.31622H13.1509L13.1861 7.42527L13.0841 7.40944ZM12.8425 7.37074L12.7839 7.36136L12.751 7.31622H12.8161L12.8425 7.37074ZM12.6051 7.11863L12.5511 7.04417L12.6684 7.026L12.7153 7.11863H12.6051ZM12.36 7.11863H12.3078L12.2767 7.08697L12.3312 7.07876L12.36 7.11863ZM12.1067 6.91577L12.0217 6.83076L12.1272 6.79617L12.2034 6.90053L12.1067 6.91577ZM11.8645 6.95329L11.8112 6.9615L11.7525 6.9187L11.8112 6.89935L11.8645 6.95329ZM11.5544 6.7774L11.4735 6.71877L11.5755 6.66659L11.654 6.74516L11.5544 6.7774ZM11.3198 6.85362L11.2612 6.87238L11.2155 6.84893L11.2741 6.81962L11.3198 6.85362ZM10.9985 6.73636L10.9065 6.68887L11.0009 6.62027L11.0935 6.6877L10.9985 6.73636ZM10.7804 6.84717L10.7294 6.87356L10.6761 6.85655L10.7265 6.81962L10.7804 6.84717ZM10.4427 6.78092L10.3536 6.75219L10.4357 6.6707L10.5289 6.71819L10.4427 6.78092ZM10.2445 6.92515L10.2023 6.95564L10.1566 6.9486L10.1959 6.90932L10.2445 6.92515ZM9.91443 6.90991L9.79716 6.89173L9.86224 6.80203L9.98302 6.84072L9.91443 6.90991ZM9.73853 7.08287L9.69983 7.12156H9.62947L9.66524 7.07114L9.73853 7.08287ZM9.38674 7.12156H9.28648L9.33866 7.01955L9.44771 7.03655L9.38674 7.12156ZM9.24309 7.31915L9.20732 7.36957L9.15631 7.37719L9.18563 7.31856L9.24309 7.31915ZM8.91475 7.4153L8.81273 7.43113L8.84908 7.31915H8.96341L8.91475 7.4153ZM8.80393 7.63282L8.77814 7.68383L8.72478 7.70083L8.74413 7.6422L8.80393 7.63282ZM8.08921 8.49058L8.03585 8.52928V8.46772L8.09859 8.43606L8.08921 8.49058ZM8.04465 8.76791V8.7726L8.03702 8.78022V8.77377L8.04465 8.76791ZM7.59142 10.012L7.56621 10.0613L7.54041 10.0109L7.57559 9.96279L7.59142 10.012ZM7.56562 10.4981L7.59142 10.5485L7.57266 10.6071L7.53631 10.5567L7.56562 10.4981ZM7.71807 10.7989V10.8041V10.7989ZM8.31318 12.2324V12.2377V12.2324ZM8.40172 12.5044L8.41872 12.5584L8.36009 12.5396L8.35071 12.481L8.40172 12.5044ZM8.49436 12.7911L8.52543 12.8861L8.41227 12.8679L8.39468 12.7589L8.49436 12.7911ZM8.72889 12.8662L8.77579 12.8808L8.79983 12.9289L8.74647 12.9207L8.72889 12.8662ZM8.91065 13.147L8.95814 13.2408H8.85084L8.81507 13.1324L8.91065 13.147ZM9.15221 13.1857L9.21905 13.1963L9.25188 13.2408H9.18094L9.15221 13.1857ZM9.39612 13.439L9.45885 13.5246L9.33338 13.5439L9.28061 13.439H9.39612ZM9.64179 13.439H9.69338L9.7356 13.4812L9.67697 13.49L9.64179 13.439ZM9.90856 13.6542L9.98302 13.7286L9.87807 13.7632L9.81006 13.67L9.90856 13.6542ZM10.1507 13.6166L10.2093 13.6078L10.2545 13.6407L10.1959 13.6594L10.1507 13.6166ZM10.4503 13.7843L10.5312 13.843L10.4292 13.8951L10.3536 13.8148L10.4503 13.7843ZM10.6849 13.7081L10.7277 13.694L10.7763 13.7192L10.7312 13.7421L10.6849 13.7081ZM10.9938 13.8306L11.0882 13.8787L11.0038 13.9373L10.9112 13.8699L10.9938 13.8306ZM11.2114 13.7192L11.2753 13.687L11.328 13.704L11.2694 13.748L11.2114 13.7192ZM11.5632 13.7779L11.6617 13.8095L11.5702 13.9004L11.467 13.8476L11.5632 13.7779ZM11.7619 13.6336L11.8036 13.6032L11.8622 13.6119L11.8217 13.6524L11.7619 13.6336ZM12.102 13.6506L12.2081 13.6671L12.1436 13.7568L12.0316 13.7204L12.102 13.6506ZM12.2779 13.4777L12.3178 13.4372H12.3764L12.34 13.4871L12.2779 13.4777ZM12.6209 13.4372H12.7206L12.669 13.5392L12.5593 13.5222L12.6209 13.4372ZM12.7639 13.2391L12.7903 13.2033L12.8443 13.1945L12.8214 13.2391H12.7639ZM13.0858 13.157L13.1902 13.1406L13.1585 13.2391H13.0413L13.0858 13.157ZM13.1967 12.9395L13.2295 12.875L13.2823 12.858L13.2588 12.9295L13.1967 12.9395ZM13.9208 12.0665L13.9718 12.0295V12.0881L13.9131 12.1186L13.9208 12.0665ZM14.4121 10.5468L14.4344 10.504L14.4596 10.5532L14.4285 10.596L14.4121 10.5468ZM14.5681 9.80449L14.5065 9.72006L14.5376 9.62508L14.6185 9.70599L14.5681 9.80449ZM14.3623 9.52248L14.3324 9.48085L14.3406 9.42808L14.3804 9.46795L14.3623 9.52248ZM14.2063 9.01415L14.16 8.96725V8.9092L14.2186 8.95025L14.2063 9.01415ZM13.9612 8.52283L13.919 8.49176L13.912 8.44778L13.9606 8.47241L13.9612 8.52283ZM13.8715 8.20564L13.8527 8.08838L13.9577 8.12238V8.25137L13.8715 8.20564ZM13.9577 7.91249L13.8176 7.86734L13.7947 7.72253L13.9571 7.74832L13.9577 7.91249ZM13.7625 7.51673L13.7308 7.3168H13.9565V7.54781L13.7625 7.51673ZM13.5567 7.48449L13.4077 7.46103L13.3608 7.3168H13.5303L13.5567 7.48449ZM13.2963 7.11922L13.2377 6.93805L13.4646 6.90229L13.4986 7.11922H13.2963ZM13.0882 7.11922H12.9387L12.8748 6.99492L13.0389 6.96971L13.0882 7.11922ZM12.7809 6.80848L12.6819 6.61265L12.9006 6.54112L12.9774 6.77564L12.7809 6.80848ZM12.5757 6.84072L12.4215 6.86476L12.323 6.7305L12.4913 6.67539L12.5757 6.84072ZM12.2005 6.56223L12.0832 6.40276L12.2972 6.29429L12.3998 6.49656L12.2005 6.56223ZM12.0023 6.62672L11.8634 6.67246L11.7608 6.56927L11.9067 6.49481L12.0023 6.62672ZM11.6124 6.42152L11.4693 6.27846L11.6517 6.14595L11.7877 6.33181L11.6124 6.42152ZM11.4265 6.51591L11.2917 6.58451L11.1744 6.49656L11.3116 6.39689L11.4265 6.51591ZM11.0015 6.37344L10.8455 6.26028L11.0085 6.09788L11.165 6.25442L11.0015 6.37344ZM10.8326 6.49598L10.7095 6.58568L10.584 6.52119L10.7013 6.40393L10.8326 6.49598ZM10.3987 6.42621L10.207 6.32947L10.343 6.14126L10.543 6.28608L10.3987 6.42621ZM10.251 6.57337L10.1443 6.68125L9.98713 6.63083L10.0891 6.48953L10.251 6.57337ZM9.78719 6.56692L9.60016 6.50829L9.70745 6.29663L9.90915 6.39982L9.78719 6.56692ZM9.66524 6.73578L9.57905 6.85304L9.43423 6.83017L9.50869 6.68418L9.66524 6.73578ZM9.23019 6.79851L9.03025 6.76685L9.10003 6.55226L9.3199 6.62321L9.23019 6.79851ZM9.13579 6.98378L9.06719 7.11863H8.91592L8.96869 6.9574L9.13579 6.98378ZM8.70778 7.11863H8.51253L8.54888 6.89115L8.77051 6.92574L8.70778 7.11863ZM8.64387 7.31622L8.59638 7.46221L8.45331 7.48449L8.48028 7.31622H8.64387ZM8.5266 7.67386L8.49377 7.77412L8.40113 7.80461L8.41931 7.69028L8.5266 7.67386ZM8.41872 8.00864L8.4023 8.05789L8.35716 8.08076L8.36654 8.02564L8.41872 8.00864ZM7.74211 8.61605L7.84061 8.56622V8.67058L7.76028 8.72921L7.74211 8.61605ZM7.70927 8.41085L7.68406 8.24844L7.84002 8.19743V8.34401L7.70927 8.41085ZM7.84119 8.91507V8.9737L7.80484 9.01064L7.79487 8.94849L7.84119 8.91507ZM7.6694 9.42515L7.67878 9.48378L7.64653 9.52893L7.6266 9.4703L7.6694 9.42515ZM7.09833 10.2858L6.98106 10.4453L6.81279 10.2765L6.97344 10.117L7.09833 10.2858ZM7.22087 10.4541L7.30764 10.5714L7.2408 10.7021L7.12354 10.5849L7.22087 10.4541ZM7.11709 9.97511L7.24197 9.85081L7.31233 9.98976L7.22028 10.117L7.11709 9.97511ZM7.43839 10.752L7.49995 10.8364L7.46947 10.9314L7.38797 10.8505L7.43839 10.752ZM7.64419 11.034L7.67644 11.0779L7.66764 11.1301L7.6266 11.0885L7.64419 11.034ZM7.80191 11.5441L7.84647 11.5892V11.6443L7.79194 11.605L7.80191 11.5441ZM8.04582 12.0336L8.08745 12.0641L8.09683 12.1227L8.04582 12.0969V12.0336ZM8.13494 12.3643L8.15195 12.4687L8.04641 12.4352V12.318L8.13494 12.3643ZM8.04699 12.6434L8.18654 12.6885L8.2094 12.8333L8.04699 12.8075V12.6434ZM8.24224 13.0385L8.2739 13.2385H8.04817V13.0081L8.24224 13.0385ZM8.44745 13.0714L8.59696 13.0948L8.64387 13.2385H8.47735L8.44745 13.0714ZM8.70778 13.4366L8.77051 13.6295L8.54185 13.6653L8.5055 13.4366H8.70778ZM8.91592 13.4366H9.05957L9.12875 13.5738L8.96869 13.5985L8.91592 13.4366ZM9.22315 13.7591L9.31697 13.945L9.10413 14.0147L9.03084 13.7896L9.22315 13.7591ZM9.42895 13.7275L9.59078 13.7017L9.68107 13.8254L9.50517 13.884L9.42895 13.7275ZM9.8042 13.9936L9.92146 14.1525L9.70276 14.2639L9.60016 14.0611L9.8042 13.9936ZM10.0018 13.9291L10.1413 13.8834L10.2451 13.9872L10.0985 14.0616L10.0018 13.9291ZM10.3923 14.1343L10.5353 14.2774L10.3536 14.4105L10.2176 14.224L10.3923 14.1343ZM10.5776 14.04L10.7124 13.9714L10.8344 14.0599L10.6978 14.1596L10.5776 14.04ZM11.0032 14.1824L11.1656 14.2997L11.0021 14.4627L10.8396 14.3032L11.0032 14.1824ZM11.1715 14.0599L11.2852 13.9778L11.4207 14.047L11.3081 14.159L11.1715 14.0599ZM11.606 14.142L11.793 14.2375L11.6628 14.4205L11.4676 14.2774L11.606 14.142ZM11.7531 13.9948L11.8704 13.8775L12.0176 13.925L11.9091 14.0751L11.7531 13.9948ZM12.2169 13.9889L12.4045 14.0476L12.292 14.2686L12.0885 14.1648L12.2169 13.9889ZM12.3394 13.8201L12.4251 13.7028L12.5699 13.7257L12.4954 13.8717L12.3394 13.8201ZM12.7757 13.7568L12.9756 13.7884L12.9058 14.003L12.6866 13.9321L12.7757 13.7568ZM12.8701 13.5715L12.9387 13.4366H13.0899L13.0378 13.5979L12.8701 13.5715ZM13.2981 13.4366H13.4957L13.4593 13.6647L13.2353 13.629L13.2981 13.4366ZM13.3626 13.2385L13.4054 13.106L13.5525 13.0831L13.5273 13.2385H13.3626ZM13.474 12.8949L13.5109 12.7812L13.6059 12.7501L13.5854 12.8773L13.474 12.8949ZM13.5871 12.5478L13.603 12.4986L13.6505 12.4745L13.6417 12.5302L13.5871 12.5478ZM14.2638 11.9392L14.1653 11.9896V11.8853L14.2462 11.8267L14.2638 11.9392ZM14.2966 12.145L14.3224 12.3074L14.1664 12.3584V12.2119L14.2966 12.145ZM14.1647 11.6414V11.5945L14.2034 11.5558L14.2116 11.6074L14.1647 11.6414ZM14.3406 11.1418L14.3294 11.0733L14.3623 11.0281L14.3851 11.0979L14.3406 11.1418ZM14.7879 10.4383L14.897 10.5872L14.7668 10.7168L14.6924 10.5702L14.7879 10.4383ZM14.7012 9.98273L14.7674 9.85198L14.8847 9.96924L14.7885 10.1023L14.7012 9.98273ZM14.9099 10.2694L15.0271 10.11L15.203 10.2858L15.0418 10.4465L14.9099 10.2694ZM15.1444 9.94755L15.2974 9.73531L15.5613 9.92644L15.3373 10.1463L15.1444 9.94755ZM15.0025 9.80566L14.863 9.66671L14.955 9.48613L15.1374 9.61863L15.0025 9.80566ZM14.7158 9.51955L14.6091 9.41225L14.656 9.26861L14.7926 9.36828L14.7158 9.51955ZM14.7199 9.07102L14.7785 8.88927L14.9832 8.99363L14.8835 9.18946L14.7199 9.07102ZM14.5516 8.94849L14.4344 8.86289L14.4572 8.72393L14.6015 8.79781L14.5516 8.94849ZM14.4895 8.51814L14.5241 8.30121L14.7393 8.37039L14.6625 8.60491L14.4895 8.51814ZM14.3042 8.42316L14.1617 8.35046V8.18395L14.3341 8.24258L14.3042 8.42316ZM14.1606 7.97581V7.7794L14.401 7.81751L14.3652 8.04206L14.1606 7.97581ZM14.1606 7.57829V7.31622H14.483L14.4338 7.62168L14.1606 7.57829ZM14.1606 7.11863V6.79441L14.578 6.72874L14.5159 7.11863H14.1606ZM13.9624 7.11863H13.7056L13.6663 6.87121L13.9595 6.82489L13.9624 7.11863ZM13.6358 6.67539L13.5772 6.3236L13.9583 6.19931V6.6279L13.6358 6.67539ZM13.44 6.70646L13.182 6.74633L13.0952 6.47897L13.3884 6.38282L13.44 6.70646ZM13.0337 6.29077L12.931 5.97417L13.2946 5.7889L13.3573 6.18524L13.0337 6.29077ZM12.8454 6.3494L12.5974 6.43031L12.4802 6.20048L12.751 6.0627L12.8454 6.3494ZM12.3916 6.024L12.238 5.72088L12.5646 5.48343L12.6907 5.87156L12.3916 6.024ZM12.2157 6.11371L11.973 6.23742L11.8188 6.02576L12.0762 5.83873L12.2157 6.11371ZM11.7021 5.8657L11.5098 5.60245L11.8065 5.3093L11.9853 5.66108L11.7021 5.8657ZM11.5421 5.98296L11.3345 6.13364L11.1586 5.95775L11.3703 5.74668L11.5421 5.98296ZM11.0144 5.81528L10.7581 5.56727L10.9927 5.24246L11.2448 5.58721L11.0144 5.81528ZM10.8742 5.95541L10.689 6.1395L10.4591 5.97768L10.6403 5.72733L10.8742 5.95541ZM10.2991 5.86042L10.0299 5.66518L10.2152 5.30168L10.4984 5.58486L10.2991 5.86042ZM10.1818 6.02107L10.027 6.23449L9.79833 6.11723L9.93788 5.84342L10.1818 6.02107ZM9.62185 6.02693L9.3199 5.87274L9.44537 5.48578L9.77547 5.72557L9.62185 6.02693ZM9.53214 6.20283L9.4096 6.44321L9.16042 6.36289L9.25775 6.0627L9.53214 6.20283ZM8.97162 6.30191L8.65853 6.20048L8.72419 5.79007L9.0795 5.97182L8.97162 6.30191ZM8.91299 6.49011L8.83384 6.73402L8.58113 6.69415L8.62862 6.401L8.91299 6.49011ZM8.3853 6.66307L8.03351 6.60796V6.21221L8.43631 6.34237L8.3853 6.66307ZM8.35364 6.8589L8.3126 7.11746H8.03644V6.80848L8.35364 6.8589ZM8.28035 7.31504L8.2481 7.51556L8.03702 7.54839V7.31387L8.28035 7.31504ZM8.21527 7.72135L8.19123 7.87262L8.0382 7.92304V7.74715L8.21527 7.72135ZM7.84002 7.98753L7.65299 8.04616L7.61605 7.81164L7.83944 7.77646L7.84002 7.98753ZM7.46243 8.11125L7.21324 8.19274L7.11592 7.89314L7.42022 7.84565L7.46243 8.11125ZM7.49409 8.30941L7.52458 8.50348L7.34458 8.59553L7.27422 8.38153L7.49409 8.30941ZM7.55742 8.70928L7.58087 8.8582L7.45891 8.94731L7.40614 8.78608L7.55742 8.70928ZM7.29005 9.06985L7.12881 9.18711L7.02445 8.98073L7.22732 8.87696L7.29005 9.06985ZM7.35455 9.26744L7.40145 9.41167L7.29592 9.51661L7.21969 9.36594L7.35455 9.26744ZM7.14816 9.66378L6.99924 9.81153L6.86321 9.6245L7.05728 9.48378L7.14816 9.66378ZM6.855 9.95282L6.67266 10.1346L6.4563 9.91823L6.70021 9.74234L6.855 9.95282ZM6.53253 10.2747L6.29155 10.5145L5.96379 10.2759L6.29389 10.0361L6.53253 10.2747ZM6.67266 10.4148L6.8638 10.606L6.71018 10.8182L6.45396 10.6324L6.67266 10.4148ZM7.00569 10.7479L7.14464 10.8868L7.05259 11.0674L6.87025 10.9349L7.00569 10.7479ZM7.29181 11.034L7.39852 11.1413L7.3522 11.2849L7.215 11.1852L7.29181 11.034ZM7.28771 11.4825L7.22497 11.6748L7.01917 11.5693L7.12881 11.3658L7.28771 11.4825ZM7.45598 11.605L7.57325 11.6918L7.54921 11.8419L7.40145 11.7663L7.45598 11.605ZM7.51872 12.0477L7.48588 12.2529L7.26836 12.1825L7.34165 11.9574L7.51872 12.0477ZM7.704 12.1427L7.84647 12.2154V12.3696L7.67644 12.3145L7.704 12.1427ZM7.84706 12.5777V12.7788L7.60784 12.7413L7.64419 12.5167L7.84706 12.5777ZM7.84706 12.9746V13.2367H7.52693L7.57618 12.9318L7.84706 12.9746ZM7.84706 13.4349V13.7755L7.4296 13.8412L7.49409 13.439L7.84706 13.4349ZM8.04523 13.4349H8.30146L8.3425 13.694L8.04582 13.7409L8.04523 13.4349ZM8.37357 13.8899L8.4281 14.2328L8.04699 14.3571V13.9409L8.37357 13.8899ZM8.56941 13.8594L8.82915 13.8183L8.9124 14.0745L8.61924 14.1701L8.56941 13.8594ZM8.97338 14.2627L9.07599 14.5788L8.71247 14.764L8.65325 14.3706L8.97338 14.2627ZM9.16159 14.2012L9.40433 14.1214L9.52159 14.3525L9.2554 14.4879L9.16159 14.2012ZM9.61071 14.5289L9.76491 14.8332L9.44302 15.0677L9.31697 14.679L9.61071 14.5289ZM9.78661 14.4392L10.034 14.3132L10.1888 14.5248L9.92674 14.7154L9.78661 14.4392ZM10.3055 14.6849L10.5025 14.9552L10.2006 15.2559L10.017 14.8942L10.3055 14.6849ZM10.4656 14.5676L10.6731 14.4169L10.8572 14.601L10.6467 14.8162L10.4656 14.5676ZM10.9974 14.7435L11.2442 14.9903L11.0097 15.3152L10.7634 14.9775L10.9974 14.7435ZM11.1375 14.604L11.3239 14.4187L11.5426 14.5776L11.3656 14.8309L11.1375 14.604ZM11.7027 14.6937L11.9724 14.8895L11.7871 15.253L11.5034 14.9698L11.7027 14.6937ZM11.82 14.5336L11.9683 14.329L12.1987 14.4463L12.0645 14.7101L11.82 14.5336ZM12.3752 14.5371L12.6789 14.6931L12.557 15.0689L12.2298 14.8309L12.3752 14.5371ZM12.4649 14.3612L12.5922 14.1115L12.8419 14.1918L12.7411 14.5025L12.4649 14.3612ZM13.0301 14.2528L13.3456 14.3542L13.2776 14.7775L12.9223 14.5964L13.0301 14.2528ZM13.0917 14.0646L13.1709 13.8207L13.4247 13.8605L13.3772 14.1566L13.0917 14.0646ZM13.6194 13.8916L13.9671 13.9467V14.3478L13.566 14.2182L13.6194 13.8916ZM13.6505 13.6964L13.6921 13.4372H13.9665V13.7462L13.6505 13.6964ZM13.7243 13.2391L13.7542 13.0514L13.9653 13.0186V13.2391H13.7243ZM13.7871 12.8457L13.8135 12.6815L13.9647 12.6316V12.8181L13.7871 12.8457ZM14.1623 12.5672L14.3494 12.5085L14.3886 12.7542L14.1629 12.7894L14.1623 12.5672ZM14.5399 12.4434L14.7891 12.3619L14.8905 12.6733L14.5839 12.7214L14.5399 12.4434ZM14.5088 12.2453L14.4778 12.0512L14.6584 11.9592L14.7281 12.1737L14.5088 12.2453ZM14.4455 11.8454L14.4221 11.6965L14.544 11.6074L14.5962 11.7686L14.4455 11.8454ZM14.7123 11.4848L14.8694 11.3711L14.9732 11.5763L14.775 11.6777L14.7123 11.4848ZM14.6484 11.2873L14.6044 11.1524L14.707 11.0504L14.7785 11.1923L14.6484 11.2873ZM14.8542 10.9032L15.0084 10.7502L15.1397 10.9302L14.941 11.0744L14.8542 10.9032ZM15.1503 10.6101L15.3338 10.4277L15.5437 10.6382L15.2998 10.8141L15.1503 10.6101ZM15.4739 10.2882L15.7155 10.0472L16.0362 10.2817L15.7061 10.5215L15.4739 10.2882ZM15.865 9.90592L16.1681 9.60339L16.6413 9.84612L16.2115 10.158L15.865 9.90592ZM15.7026 9.78866L15.4129 9.57818L15.6035 9.31493L15.9823 9.50724L15.7026 9.78866ZM15.2529 9.46209L15.0441 9.30848L15.1585 9.0851L15.4241 9.22112L15.2529 9.46209ZM15.2494 8.91096L15.4124 8.59143L15.7935 8.71455L15.5425 9.06164L15.2494 8.91096ZM15.0735 8.82067L14.8389 8.70341L14.9257 8.43664L15.2189 8.53162L15.0735 8.82067ZM14.9855 8.24434L15.0881 7.92773L15.4915 7.99164L15.3092 8.3487L14.9855 8.24434ZM14.7973 8.18571L14.5522 8.10714L14.5933 7.85151L14.8905 7.899L14.7973 8.18571ZM14.6249 7.65803L14.6789 7.32149H15.0782L14.9521 7.70963L14.6249 7.65803ZM14.7105 7.12391L14.778 6.70236L15.3056 6.61969L15.1421 7.12391H14.7105ZM14.8114 6.49656L14.9087 5.88974L15.6193 5.65522L15.3754 6.40686L14.8114 6.49656ZM14.6056 6.52881L14.1547 6.59917V6.13657L14.6982 5.96068L14.6056 6.52881ZM14.1529 5.92844V5.35503L14.8518 4.99914L14.7346 5.73906L14.1529 5.92844ZM13.9553 5.99293L13.5449 6.12778L13.4775 5.69978L13.9559 5.45587L13.9553 5.99293ZM13.4429 5.49398L13.3514 4.91647L13.9524 4.48027V5.23366L13.4429 5.49398ZM13.2576 5.58896L12.8642 5.7889L12.7282 5.36969L13.1714 5.04722L13.2576 5.58896ZM12.6637 5.17152L12.4878 4.63094L13.0208 4.09975L13.138 4.82794L12.6637 5.17152ZM12.4954 5.29405L12.1436 5.55027L11.9501 5.168L12.3324 4.78807L12.4954 5.29405ZM11.8546 4.98097L11.5778 4.43453L12.0187 3.82536L12.2626 4.57056L11.8546 4.98097ZM11.7074 5.12754L11.3867 5.44708L11.1158 5.07243L11.4482 4.61277L11.7074 5.12754ZM10.9921 4.90651L10.6544 4.44333L11.0062 3.74856L11.3445 4.41636L10.9921 4.90651ZM10.8701 5.07536L10.6163 5.42715L10.3096 5.12051L10.5535 4.64208L10.8701 5.07536ZM10.1624 4.97276L9.74908 4.56235L9.97834 3.85585L10.4228 4.46502L10.1624 4.97276ZM10.068 5.15686L9.86752 5.54968L9.51104 5.29054L9.6799 4.76873L10.068 5.15686ZM9.34218 5.168L8.87957 4.83205L8.99683 4.08803L9.52042 4.6116L9.34218 5.168ZM9.27827 5.36617L9.14224 5.78362L8.7582 5.58662L8.84439 5.05074L9.27827 5.36617ZM8.57468 5.49164L8.03175 5.21549V4.46033L8.66498 4.92234L8.57468 5.49164ZM8.54185 5.69743L8.47032 6.14185L8.03527 6.00172V5.43711L8.54185 5.69743ZM7.83826 5.93782L7.29298 5.76193L7.17103 4.99504L7.8324 5.33275L7.83826 5.93782ZM7.83826 6.14595V6.57923L7.41025 6.51181L7.3264 5.98413L7.83826 6.14595ZM7.83826 6.77975V7.12039H7.50582L7.44191 6.71701L7.83826 6.77975ZM7.83826 7.31798V7.5824L7.5838 7.62227L7.53572 7.31798H7.83826ZM7.38855 7.65276L7.05377 7.70494L6.92771 7.31798H7.33813L7.38855 7.65276ZM6.855 7.73601L6.42523 7.80285L6.17956 7.31739H6.71839L6.855 7.73601ZM6.91715 7.92715L7.02445 8.25724L6.70784 8.36042L6.51963 7.98929L6.91715 7.92715ZM7.08601 8.44544L7.16517 8.68934L6.93416 8.8066L6.79813 8.53866L7.08601 8.44544ZM6.75767 8.89689L6.44516 9.05578L6.21064 8.73214L6.60992 8.60198L6.75767 8.89689ZM6.84738 9.07278L6.96464 9.30731L6.74477 9.46678L6.56243 9.2176L6.84738 9.07278ZM6.5853 9.58345L6.31617 9.77928L6.0277 9.49023L6.38477 9.30848L6.5853 9.58345ZM6.15435 9.89713L5.79728 10.1563L5.35343 9.83381L5.84243 9.58521L6.15435 9.89713ZM5.62666 10.2782L5.1576 10.6189L4.49037 10.2747L5.15819 9.93465L5.62666 10.2782ZM5.79493 10.4008L6.14673 10.6581L5.83891 10.9671L5.35637 10.7203L5.79493 10.4008ZM6.31148 10.776L6.5935 10.9812L6.39884 11.2544L6.02594 11.0633L6.31148 10.776ZM6.75357 11.0973L6.96113 11.248L6.84386 11.4825L6.5765 11.3459L6.75357 11.0973ZM6.75357 11.6578L6.59585 11.968L6.21415 11.8448L6.45865 11.5071L6.75357 11.6578ZM6.92947 11.7481L7.16399 11.8683L7.08074 12.1245L6.78758 12.0295L6.92947 11.7481ZM7.01859 12.3127L6.91598 12.6293L6.51318 12.5654L6.69494 12.2083L7.01859 12.3127ZM7.20738 12.3713L7.45364 12.4505L7.41318 12.7055L7.11416 12.658L7.20738 12.3713ZM7.38328 12.899L7.32934 13.235H6.92771L7.05377 12.8468L7.38328 12.899ZM7.29768 13.4331L7.2279 13.867L6.69552 13.9502L6.86321 13.4331H7.29768ZM7.19507 14.0728L7.0995 14.6667L6.38712 14.9012L6.62692 14.1625L7.19507 14.0728ZM7.40087 14.0405L7.85175 13.9702V14.4205L7.31057 14.5964L7.40087 14.0405ZM7.85292 14.6268V15.1997L7.15637 15.555L7.27364 14.8156L7.85292 14.6268ZM8.0511 14.5618L8.46152 14.4275L8.52954 14.8555L8.05051 15.0994L8.0511 14.5618ZM8.56296 15.0607L8.65442 15.6388L8.05403 16.075V15.321L8.56296 15.0607ZM8.74882 14.9663L9.14165 14.7664L9.27827 15.1856L8.83442 15.5081L8.74882 14.9663ZM9.34218 15.3838L9.521 15.9331L8.98628 16.4725L8.86901 15.7338L9.34218 15.3838ZM9.51104 15.2612L9.85931 15.0085L10.0575 15.399L9.67814 15.7766L9.51104 15.2612ZM10.1513 15.5931L10.4245 16.1319L9.98713 16.7364L9.74674 15.9959L10.1513 15.5931ZM10.2991 15.4465L10.625 15.1217L10.8912 15.4869L10.5547 15.9513L10.2991 15.4465ZM11.0138 15.6517L11.3521 16.1149L10.9944 16.8184L10.6555 16.1495L11.0138 15.6517ZM11.1357 15.4834L11.3902 15.1316L11.6963 15.4383L11.4523 15.9167L11.1357 15.4834ZM11.8434 15.586L12.2574 15.9994L12.0275 16.7029L11.5849 16.0973L11.8434 15.586ZM11.9384 15.4002L12.1383 15.0074L12.4954 15.2665L12.326 15.7883L11.9384 15.4002ZM12.6637 15.389L13.1281 15.7262L13.0108 16.4708L12.4831 15.9431L12.6637 15.389ZM12.7282 15.1909L12.8601 14.784L13.2477 14.9827L13.1632 15.5075L12.7282 15.1909ZM13.4318 15.0777L13.9729 15.3544V16.0973L13.3438 15.6382L13.4318 15.0777ZM13.4646 14.8719L13.5379 14.4152L13.9712 14.5553V15.1322L13.4646 14.8719ZM14.1682 14.6192L14.7141 14.7951L14.8378 15.5755L14.1699 15.2337L14.1682 14.6192ZM14.1682 14.4111V13.9778L14.5962 14.0452L14.6806 14.5758L14.1682 14.4111ZM14.1682 13.7773V13.4366H14.5012L14.5651 13.84L14.1682 13.7773ZM14.1682 13.2385V12.9869L14.4244 12.9471L14.4701 13.2402L14.1682 13.2385ZM14.6191 12.916L14.9568 12.8638L15.0782 13.2385H14.6677L14.6191 12.916ZM15.155 12.8328L15.5806 12.7659L15.8204 13.2385H15.2869L15.155 12.8328ZM15.0928 12.6416L14.9814 12.2998L15.2927 12.1978L15.4868 12.5801L15.0928 12.6416ZM14.9204 12.1139L14.8413 11.87L15.067 11.7528L15.2025 12.0195L14.9204 12.1139ZM15.2435 11.6648L15.5607 11.503L15.7952 11.8272L15.3959 11.958L15.2435 11.6648ZM15.1538 11.4889L15.0365 11.2544L15.2611 11.0908L15.4434 11.3406L15.1538 11.4889ZM15.4206 10.9759L15.6897 10.7801L15.9782 11.0686L15.6211 11.2509L15.4206 10.9759ZM15.8521 10.6623L16.2086 10.4031L16.6524 10.7256L16.164 10.9742L15.8521 10.6623ZM16.3798 10.2806L16.8383 9.94755L17.5067 10.2882L16.8518 10.6224L16.3798 10.2806ZM17.0177 9.81739L17.692 9.32724L18.7368 9.66436L17.726 10.1797L17.0177 9.81739ZM16.8201 9.71596L16.3153 9.4574L16.7509 9.02353L17.4586 9.25219L16.8201 9.71596ZM16.13 9.36418L15.7196 9.15428L15.9905 8.78022L16.5381 8.95611L16.13 9.36418ZM16.113 8.61136L16.4496 8.14701L17.2259 8.26427L16.6941 8.79194L16.113 8.61136ZM15.9154 8.54745L15.505 8.41436L15.702 8.02858L16.2326 8.11242L15.9154 8.54745ZM15.7941 7.84389L16.0597 7.32267H16.8019L16.3599 7.93359L15.7941 7.84389ZM15.5883 7.81164L15.1503 7.7366L15.2869 7.3168H15.8351L15.5883 7.81164ZM15.3537 7.12508L15.5296 6.58627L16.2731 6.46901L15.9395 7.12391L15.3537 7.12508ZM15.5976 6.3752L15.855 5.58193L16.8987 5.2407L16.3833 6.25266L15.5976 6.3752ZM15.9313 5.34917L16.283 4.2733L17.7834 3.5111L17.0283 4.99269L15.9313 5.34917ZM15.6967 5.42539L14.9456 5.67105L15.0711 4.88892L16.028 4.39466L15.6967 5.42539ZM15.1104 4.64678L15.2933 3.50876L16.6372 2.53198L16.1165 4.13435L15.1104 4.64678ZM14.8923 4.75817L14.1541 5.13458V4.33779L15.0682 3.67351L14.8923 4.75817ZM14.1518 4.0933V2.97933L15.3707 1.7563L15.1081 3.39091L14.1518 4.0933ZM13.9542 4.23695L13.3192 4.69837L13.1949 3.92562L13.9495 3.17398L13.9542 4.23695ZM13.1591 3.68758L12.9727 2.51497L13.9477 1.16647L13.9512 2.89959L13.1591 3.68758ZM12.9832 3.85996L12.4198 4.42105L12.1624 3.62954L12.8073 2.74011L12.9832 3.85996ZM12.0867 3.39677L11.735 2.32091L12.4972 0.820555L12.7575 2.46221L12.0867 3.39677ZM11.9431 3.59553L11.4776 4.24047L11.1193 3.5369L11.6101 2.57419L11.9431 3.59553ZM11.0085 3.31469L10.4878 2.28397L11.0032 0.700949L11.5262 2.29921L11.0085 3.31469ZM10.8977 3.53338L10.5236 4.26685L10.0546 3.62192L10.4017 2.5525L10.8977 3.53338ZM9.90973 3.42609L9.25071 2.51849L9.52394 0.81821L10.2744 2.29863L9.90973 3.42609ZM9.8341 3.66061L9.59136 4.39994L9.03729 3.84588L9.20615 2.79347L9.8341 3.66061ZM8.82915 3.91448L8.70309 4.70072L8.03292 4.21408V3.11594L8.82915 3.91448ZM7.8324 4.06985L6.91774 3.40498L6.65448 1.74164L7.83005 2.91718L7.8324 4.06985ZM7.8324 4.31493V5.1123L7.12881 4.75231L6.95937 3.68172L7.8324 4.31493ZM6.91246 4.64033L5.88816 4.11617L5.36985 2.5267L6.73363 3.51521L6.91246 4.64033ZM6.95057 4.88247L7.07898 5.69274L6.32028 5.45001L5.97435 4.3847L6.95057 4.88247ZM7.11357 5.91202L7.20328 6.47839L6.62516 6.3881L6.39591 5.68453L7.11357 5.91202ZM7.23611 6.68418L7.3053 7.1198H6.8638L6.69435 6.59799L7.23611 6.68418ZM6.65565 7.1198H6.0793L5.73806 6.44673L6.47448 6.56399L6.65565 7.1198ZM5.85767 7.1198H5.03272L4.38776 6.23273L5.49826 6.40862L5.85767 7.1198ZM5.95793 7.31739L6.22002 7.8351L5.62373 7.92832L5.17812 7.31739H5.95793ZM6.31441 8.02095L6.51787 8.42316L6.08692 8.56387L5.75448 8.1089L6.31441 8.02095ZM5.88875 8.62895L5.34405 8.80484L4.79584 8.25606L5.53461 8.1388L5.88875 8.62895ZM6.01187 8.79722L6.26692 9.149L5.88112 9.34542L5.50119 8.96549L6.01187 8.79722ZM5.69467 9.43688L5.17402 9.70247L4.57304 9.26626L5.28953 9.03174L5.69467 9.43688ZM4.97584 9.80332L4.27226 10.1627L3.31773 9.67668L4.33851 9.34307L4.97584 9.80332ZM4.05297 10.2724L3.00405 10.8071L1.42098 10.2964L3.05447 9.76169L4.05297 10.2724ZM4.2705 10.3838L4.98053 10.7479L4.31447 11.2321L3.26965 10.895L4.2705 10.3838ZM5.17812 10.8487L5.69291 11.1125L5.26724 11.537L4.54959 11.3025L5.17812 10.8487ZM5.87878 11.2075L6.28158 11.4139L6.0148 11.7821L5.47656 11.6062L5.87878 11.2075ZM5.89519 11.948L5.55923 12.4124L4.79115 12.2904L5.31884 11.7627L5.89519 11.948ZM6.09337 12.0119L6.5038 12.145L6.30796 12.5326L5.78028 12.4487L6.09337 12.0119ZM6.21474 12.7155L5.94914 13.2361H5.20627L5.64835 12.6258L6.21474 12.7155ZM6.41995 12.7477L6.85559 12.8169L6.71839 13.2391H6.17018L6.41995 12.7477ZM6.65448 13.4343L6.47565 13.986L5.72927 14.1033L6.06992 13.4349L6.65448 13.4343ZM6.40705 14.1965L6.15318 14.9769L5.10952 15.3181L5.61845 14.3214L6.40705 14.1965ZM6.07754 15.2096L5.72575 16.2855L4.22477 17.0477L4.97995 15.5655L6.07754 15.2096ZM6.31207 15.1334L7.06432 14.8895L6.93885 15.671L5.97845 16.1606L6.31207 15.1334ZM6.90132 15.9108L6.71839 17.0518L5.36985 18.0297L5.8905 16.428L6.90132 15.9108ZM7.11943 15.7994L7.85585 15.4242V16.221L6.94412 16.8835L7.11943 15.7994ZM7.85761 16.4655V17.5906L6.63396 18.8089L6.89898 17.1603L7.85761 16.4655ZM8.05579 16.3218L8.69077 15.8604L8.8139 16.6408L8.05755 17.3936L8.05579 16.3218ZM8.85143 16.8829L9.03553 18.0468L8.06048 19.3953L8.05696 17.6744L8.85143 16.8829ZM9.02439 16.7106L9.5896 16.1477L9.84348 16.9298L9.19853 17.8199L9.02439 16.7106ZM9.91912 17.1632L10.2709 18.2385L9.50869 19.7394L9.24836 18.0978L9.91912 17.1632ZM10.0634 16.9644L10.5254 16.326L10.8836 17.0295L10.3958 17.9864L10.0634 16.9644ZM10.9944 17.2511L11.5157 18.2801L11.0032 19.8573L10.4826 18.2555L10.9944 17.2511ZM11.1052 17.033L11.4828 16.2966L11.9519 16.9416L11.6001 18.018L11.1052 17.033ZM12.0961 17.1339L12.7575 18.0409L12.4831 19.7511L11.7297 18.2654L12.0961 17.1339ZM12.1718 16.8994L12.4145 16.153L12.9697 16.7088L12.8009 17.7642L12.1718 16.8994ZM13.1814 16.6402L13.3081 15.8534L13.9765 16.3388V17.437L13.1814 16.6402ZM14.1746 16.4831L15.0893 17.1479L15.3531 18.8113L14.177 17.6393L14.1746 16.4831ZM14.1746 16.238V15.4529L14.8782 15.8141L15.0459 16.8695L14.1746 16.238ZM15.0969 15.9261L16.1242 16.4538L16.6354 18.0274L15.2728 17.0377L15.0969 15.9261ZM15.0588 15.6839L14.9269 14.8643L15.685 15.1088L16.0368 16.1893L15.0588 15.6839ZM14.8935 14.6409L14.8038 14.0745L15.3813 14.166L15.6111 14.8696L14.8935 14.6409ZM14.7715 13.8687L14.7023 13.4331H15.1432L15.3127 13.9543L14.7715 13.8687ZM15.3514 13.4331H15.9236L16.2643 14.105L15.5349 13.9878L15.3514 13.4331ZM16.1435 13.4331H16.9731L17.6181 14.3202L16.5006 14.1443L16.1435 13.4331ZM16.0409 13.2391L15.7847 12.7343L16.3927 12.6399L16.8301 13.2391H16.0409ZM15.6891 12.549L15.4798 12.1386L15.916 11.9961L16.2567 12.4622L15.6891 12.549ZM16.1142 11.9287L16.6589 11.7528L17.2182 12.3121L16.4765 12.4294L16.1142 11.9287ZM15.9916 11.7604L15.736 11.4086L16.1218 11.2122L16.5017 11.5921L15.9916 11.7604ZM16.3077 11.119L16.8289 10.854L17.4293 11.2902L16.7128 11.5247L16.3077 11.119ZM17.0265 10.7525L17.7195 10.4008L18.6676 10.8862L17.6615 11.2151L17.0265 10.7525ZM17.9376 10.2888L18.9983 9.74821L20.5814 10.2589L18.9326 10.7983L17.9376 10.2888ZM18.9813 9.53479L17.8849 9.18301L18.7995 8.51873L20.4629 8.78198L18.9813 9.53479ZM17.6515 9.10562L16.9028 8.86406L17.4645 8.30473L18.5199 8.47241L17.6515 9.10562ZM17.638 8.13176L18.4589 7.31739H20.1158L18.7532 8.30766L17.638 8.13176ZM17.3959 8.09366L16.575 7.96291L17.0441 7.31798H18.1786L17.3959 8.09366ZM17.1836 7.1198L17.835 6.21983L19.5459 5.95247L18.3733 7.1198H17.1836ZM16.9391 7.1198H16.1582L16.51 6.42738L17.5618 6.26321L16.9391 7.1198ZM16.6219 6.21221L17.1625 5.151L18.7456 4.63388L17.7283 6.04101L16.6219 6.21221ZM17.2898 4.90123L18.0262 3.45658L18.8306 4.39466L17.2898 4.90123ZM16.364 4.00184L16.8717 2.43934L17.8292 3.25548L16.364 4.00184ZM15.3373 3.22616L15.5935 1.62907L16.6489 2.274L15.3373 3.22616ZM14.1483 2.69849L14.1447 1.00407L15.3502 1.50184L14.1483 2.69849ZM12.9281 2.23296L12.6748 0.631766L13.8785 0.91964L12.9281 2.23296ZM11.6505 2.04945L11.1428 0.486949L12.3969 0.583688L11.6505 2.04945ZM10.3606 2.03186L9.62713 0.583688L10.8631 0.486362L10.3606 2.03186ZM9.08595 2.29276L8.08921 0.927849L9.35332 0.622971L9.08595 2.29276ZM7.82888 2.63575L6.68262 1.48953L7.82536 1.01462L7.82888 2.63575ZM6.69025 3.23906L5.36047 2.27342L6.43285 1.615L6.69025 3.23906ZM5.6378 3.9866L4.18959 3.24492L5.13532 2.43817L5.6378 3.9866ZM5.72457 4.25336L6.08751 5.37203L5.01806 5.02846L4.24118 3.49586L5.72457 4.25336ZM6.16314 5.60186L6.40588 6.34882L5.62725 6.22511L5.1447 5.27353L6.16314 5.60186ZM5.38627 6.18817L4.22008 6.00348L3.23975 4.66026L4.88145 5.18793L5.38627 6.18817ZM4.10867 6.18817L4.78763 7.11922H3.65662L2.4658 5.92785L4.10867 6.18817ZM4.93246 7.3168L5.40151 7.96174L4.62053 8.08427L3.85363 7.3168H4.93246ZM4.37955 8.1218L3.24268 8.29769L1.89062 7.31504H3.57454L4.37955 8.1218ZM4.55545 8.29769L5.13474 8.87696L4.37311 9.12321L3.46724 8.46479L4.55545 8.29769ZM4.14503 9.2006L3.07382 9.55238L1.54411 8.76908L3.19401 8.5111L4.14503 9.2006ZM3.02105 11.0199L4.11806 11.3717L3.20339 12.036L1.53942 11.7727L3.02105 11.0199ZM4.35141 11.4491L5.10894 11.6936L4.549 12.2541L3.47955 12.0846L4.35141 11.4491ZM4.37311 12.427L3.55753 13.2391H1.89062L3.25323 12.2511L4.37311 12.427ZM4.61584 12.4651L5.42848 12.5935L4.95943 13.2385H3.84014L4.61584 12.4651ZM4.81695 13.4372L4.15617 14.3513L2.45583 14.6169L3.64079 13.4372H4.81695ZM5.06145 13.4372H5.84653L5.48653 14.1408L4.43115 14.3055L5.06145 13.4372ZM5.37747 14.3618L4.84216 15.409L3.2591 15.9261L4.26639 14.5342L5.37747 14.3618ZM4.7161 15.6599L3.98027 17.1034L3.17584 16.1653L4.7161 15.6599ZM5.6419 16.5564L5.13532 18.1177L4.17845 17.3016L5.6419 16.5564ZM6.67324 17.3303L6.41585 18.9303L5.36047 18.2854L6.67324 17.3303ZM7.85937 17.8744L7.86289 19.5565L6.66679 19.0622L7.85937 17.8744ZM9.0795 18.3276L9.3328 19.9288L8.12966 19.6386L9.0795 18.3276ZM10.3536 18.5076L10.8613 20.0701L9.60719 19.9722L10.3536 18.5076ZM11.6435 18.5322L12.374 19.9733L11.1428 20.0713L11.6435 18.5322ZM12.9223 18.2666L13.919 19.6292L12.6537 19.9317L12.9223 18.2666ZM14.1787 17.9201L15.325 19.0663L14.1817 19.5407L14.1787 17.9201ZM15.3174 17.3168L16.6466 18.2824L15.5718 18.9403L15.3174 17.3168ZM16.3728 16.5839L17.8069 17.3186L16.8688 18.1189L16.3728 16.5839ZM16.286 16.3172L15.9184 15.1827L16.9796 15.5251L17.7641 17.0723L16.286 16.3172ZM15.8421 14.9511L15.6 14.2047L16.371 14.3272L16.8529 15.2776L15.8421 14.9511ZM16.6126 14.3648L17.7852 14.5506L18.7655 15.8938L17.1186 15.3627L16.6126 14.3648ZM17.8972 14.3677L17.2176 13.4366H18.3487L19.5395 14.628L17.8972 14.3677ZM17.0763 13.2385L16.6114 12.6029L17.3947 12.4857L18.1517 13.2391L17.0763 13.2385ZM17.6398 12.4446L18.7796 12.2687L20.1182 13.2408H18.4313L17.6398 12.4446ZM17.4639 12.2687L16.8735 11.6812L17.6304 11.4338L18.5503 12.1022L17.4639 12.2687ZM17.8632 11.3547L18.9186 11.0093L20.4629 11.8003L18.8271 12.0559L17.8632 11.3547ZM20.6535 8.60608L19.0311 8.35163L20.3592 7.38481L20.6535 8.60608ZM20.2735 7.11687H18.6582L19.801 5.97827L20.2735 7.11687ZM19.6796 5.73144L18.0016 5.9941L18.9983 4.61922L19.6796 5.73144ZM3.99141 3.43899L4.75363 4.94286L3.15063 4.42515L3.99141 3.43899ZM2.21427 5.9601L3.37636 7.1198H1.73466L2.21427 5.9601ZM1.64613 7.38481L2.96593 8.34342L1.35766 8.59495L1.64613 7.38481ZM1.35297 11.9474L2.97707 12.2048L1.64788 13.1705L1.35297 11.9474ZM1.73349 13.4366H3.36111L2.20958 14.5835L1.73349 13.4366ZM2.33388 14.8362L3.99493 14.5764L3.0105 15.9372L2.33388 14.8362ZM18.0115 17.1227L17.2458 15.6124L18.8552 16.1313L18.0115 17.1227ZM19.7928 14.6016L18.6301 13.439H20.2718L19.7928 14.6016ZM20.3603 13.1734L19.0546 12.2236L20.6459 11.975L20.3603 13.1734Z" fill="url(#paint0_linear_1727_17745)" stroke="url(#paint1_linear_1727_17745)" stroke-width="0.07"/>
<g filter="url(#filter0_dif_1727_17745)">
<circle cx="10.9999" cy="10.2759" r="4.16667" fill="white"/>
</g>
<defs>
<filter id="filter0_dif_1727_17745" x="2.83325" y="2.10919" width="16.3333" height="20.3333" filterUnits="userSpaceOnUse" color-interpolation-filters="sRGB">
<feFlood flood-opacity="0" result="BackgroundImageFix"/>
<feColorMatrix in="SourceAlpha" type="matrix" values="0 0 0 0 0 0 0 0 0 0 0 0 0 0 0 0 0 0 127 0" result="hardAlpha"/>
<feOffset dy="4"/>
<feGaussianBlur stdDeviation="2"/>
<feComposite in2="hardAlpha" operator="out"/>
<feColorMatrix type="matrix" values="0 0 0 0 0 0 0 0 0 0 0 0 0 0 0 0 0 0 0.25 0"/>
<feBlend mode="normal" in2="BackgroundImageFix" result="effect1_dropShadow_1727_17745"/>
<feBlend mode="normal" in="SourceGraphic" in2="effect1_dropShadow_1727_17745" result="shape"/>
<feColorMatrix in="SourceAlpha" type="matrix" values="0 0 0 0 0 0 0 0 0 0 0 0 0 0 0 0 0 0 127 0" result="hardAlpha"/>
<feOffset dy="2"/>
<feGaussianBlur stdDeviation="0.5"/>
<feComposite in2="hardAlpha" operator="arithmetic" k2="-1" k3="1"/>
<feColorMatrix type="matrix" values="0 0 0 0 0 0 0 0 0 0 0 0 0 0 0 0 0 0 0.07 0"/>
<feBlend mode="normal" in2="shape" result="effect2_innerShadow_1727_17745"/>
<feGaussianBlur stdDeviation="2" result="effect3_foregroundBlur_1727_17745"/>
</filter>
<linearGradient id="paint0_linear_1727_17745" x1="-1.14286" y1="1.70445" x2="22.4286" y2="26.7045" gradientUnits="userSpaceOnUse">
<stop stop-color="#B200C1"/>
<stop offset="0.901725" stop-color="#00A3A3"/>
</linearGradient>
<linearGradient id="paint1_linear_1727_17745" x1="-1.14286" y1="1.70445" x2="22.4286" y2="26.7045" gradientUnits="userSpaceOnUse">
<stop stop-color="#B200C1"/>
<stop offset="0.901725" stop-color="#00A3A3"/>
</linearGradient>
</defs>
</svg>
