<svg width="26" height="26" viewBox="0 0 26 26" fill="none" xmlns="http://www.w3.org/2000/svg">
<path d="M1 13C1 6.37258 6.37258 1 13 1C19.6274 1 25 6.37258 25 13C25 19.6274 19.6274 25 13 25C6.37258 25 1 19.6274 1 13Z" fill="white" fill-opacity="0.2"/>
<path d="M24.8558 11.1166L24.4146 9.28729L23.6927 7.54667L22.7077 5.94254L21.4835 4.51149L20.051 3.2894L18.4447 2.30441L16.704 1.58466L14.8747 1.14634L13.0158 1L11.1197 1.14986L9.29034 1.59029L7.55108 2.31285L5.9462 3.29784L4.51511 4.52204L3.28876 5.95661L2.30374 7.56074L1.58468 9.30066L1.14635 11.1299L1 13.0077L1.14916 14.8849L1.59031 16.7141L2.31219 18.4533L3.29721 20.0582L4.52144 21.4892L5.95465 22.7113L7.56093 23.6963L9.3009 24.416L11.1302 24.8537L13.0074 25L14.8846 24.8508L16.7139 24.4097L18.4531 23.6879L20.058 22.7029L21.4891 21.4787L22.7112 20.0455L23.6963 18.4393L24.4153 16.6993L24.8537 14.8701L25 12.9923L24.8558 11.1166ZM22.821 13.7796L24.7559 13.1463L24.6341 14.7083L22.821 13.7796ZM21.4757 18.1846L23.3972 18.4885L22.6233 19.7549L21.4757 18.1846ZM1.3722 14.6752L1.25399 13.1977L3.10513 13.795L1.3722 14.6752ZM3.16845 12.2324L1.25188 12.8593L1.3722 11.3114L3.16845 12.2324ZM4.532 7.82317L2.61051 7.51923L3.38445 6.25281L4.532 7.82317ZM24.6355 11.3311L24.753 12.8086L22.9019 12.2113L24.6355 11.3311ZM16.5788 23.9306L15.3588 22.2582L15.5698 20.9313L16.5732 21.9353L16.5788 23.9306ZM9.42825 2.07294L10.6511 3.74883L10.44 5.07434L9.43247 4.07106L9.42825 2.07294ZM17.3401 13.7064L17.2479 13.7985L17.2043 13.6642L17.2746 13.5713L17.3401 13.7064ZM17.1804 14.36L17.0692 14.4409L17.0516 14.329L17.1417 14.2397L17.1804 14.36ZM16.5619 15.5772L16.4212 15.6229L16.4402 15.5054L16.5598 15.4449L16.5619 15.5772ZM9.10882 14.8588L9.21717 14.9376V15.0629L9.08631 14.996L9.10882 14.8588ZM8.8696 14.2298L8.95474 14.315L8.93503 14.4388L8.82668 14.36L8.8696 14.2298ZM8.66697 12.3147L8.76336 12.219L8.80346 12.3422L8.73311 12.4414L8.66697 12.3147ZM8.82668 11.6463L8.93785 11.5654L8.95755 11.69L8.8696 11.7779L8.82668 11.6463ZM9.44513 10.4292L9.58585 10.3827L9.56686 10.4995L9.44513 10.5614V10.4292ZM16.9031 11.1489L16.7927 11.0687V10.9583L16.9228 11.0251L16.9031 11.1489ZM17.1402 11.7765L17.0565 11.6928L17.0762 11.5689L17.1825 11.6463L17.1402 11.7765ZM17.3978 12.9944L17.307 13.1189L17.2542 13.0141L17.3176 12.8895L17.3978 12.9944ZM8.6142 13.012L8.69793 12.8959L8.7514 13.0021L8.6923 13.1189L8.6142 13.012ZM16.2988 14.367L16.0462 14.8595L15.6944 15.3429L15.3426 15.6947L14.8663 16.0415L14.3737 16.2934L13.7954 16.4826L13.3296 16.553H12.7274L12.1786 16.4665L11.5995 16.2849L11.1731 16.0661L10.6891 15.7144L10.2958 15.3218L9.95172 14.8504L9.71672 14.386L9.53801 13.8358L9.45147 13.2878V12.7319L9.54293 12.1621L9.7125 11.64L9.96438 11.1475L10.2754 10.7176L10.7207 10.2737L11.1429 9.96693L11.6354 9.71506L12.1279 9.55394L12.7752 9.45263H13.2832L13.832 9.53987L14.3287 9.70028L14.9035 9.99437L15.3187 10.2962L15.7113 10.6888L16.0307 11.1264L16.3044 11.666L16.469 12.174L16.5563 12.7228V13.2934L16.4697 13.8337L16.2988 14.367ZM15.8302 10.1984L15.8196 10.178H15.8238L15.8302 10.197V10.1984ZM13.6378 9.0727L13.6174 9.06215H13.6258L13.6427 9.07411L13.6378 9.0727ZM11.2034 9.45263H11.1851L11.1907 9.44418H11.209L11.2034 9.45263ZM10.6553 16.2287H10.6504H10.6553ZM11.7719 16.7915L11.7782 16.7957H11.7747L11.7698 16.7908L11.7719 16.7915ZM12.9982 16.9927L12.9905 16.9962L12.9982 16.9927ZM14.2337 16.7936H14.2387H14.2344H14.2337ZM15.344 16.2308L15.3398 16.2385L15.344 16.2308ZM17.0896 12.6876L17.1149 12.6088L17.1585 12.6686L17.1198 12.746L17.0896 12.6876ZM16.1264 10.3504L16.0996 10.2681L16.17 10.2906L16.1841 10.3799L16.1264 10.3504ZM16.0089 9.98874L15.9723 9.87477L16.1081 9.89658L16.1285 10.0274L16.0089 9.98874ZM15.7274 9.89869L15.662 9.87758L15.6339 9.82129L15.7042 9.83325L15.7274 9.89869ZM15.5009 9.56027L15.4446 9.44841H15.5811L15.6233 9.57927L15.5009 9.56027ZM15.211 9.51384L15.1407 9.50258L15.1013 9.44841H15.1794L15.211 9.51384ZM14.9261 9.2113L14.8613 9.12195L15.0021 9.10014L15.0583 9.2113H14.9261ZM14.632 9.2113H14.5693L14.5321 9.17331L14.5975 9.16346L14.632 9.2113ZM14.328 8.96787L14.226 8.86585L14.3526 8.82434L14.4441 8.94958L14.328 8.96787ZM14.0374 9.0129L13.9734 9.02275L13.903 8.97139L13.9734 8.94817L14.0374 9.0129ZM13.6652 8.80183L13.5681 8.73147L13.6906 8.66886L13.7848 8.76313L13.6652 8.80183ZM13.3838 8.89329L13.3134 8.91581L13.2586 8.88766L13.3289 8.85249L13.3838 8.89329ZM12.9982 8.75258L12.8878 8.69559L13.0011 8.61327L13.1122 8.69418L12.9982 8.75258ZM12.7365 8.88555L12.6753 8.91721L12.6113 8.89681L12.6718 8.85249L12.7365 8.88555ZM12.3312 8.80605L12.2243 8.77158L12.3228 8.67378L12.4347 8.73077L12.3312 8.80605ZM12.0934 8.97913L12.0428 9.01571L11.9879 9.00727L12.035 8.96013L12.0934 8.97913ZM11.6973 8.96083L11.5566 8.93902L11.6347 8.83138L11.7796 8.87781L11.6973 8.96083ZM11.4862 9.16839L11.4398 9.21482H11.3554L11.3983 9.15431L11.4862 9.16839ZM11.0641 9.21482H10.9438L11.0064 9.0924L11.1373 9.1128L11.0641 9.21482ZM10.8917 9.45192L10.8488 9.51243L10.7876 9.52158L10.8228 9.45122L10.8917 9.45192ZM10.4977 9.56731L10.3753 9.5863L10.4189 9.45192H10.5561L10.4977 9.56731ZM10.3647 9.82833L10.3338 9.88954L10.2697 9.90994L10.293 9.83959L10.3647 9.82833ZM9.50705 10.8576L9.44302 10.9041V10.8302L9.51831 10.7922L9.50705 10.8576ZM9.45358 11.1904V11.1961L9.44443 11.2052V11.1975L9.45358 11.1904ZM8.90971 12.6834L8.87945 12.7425L8.84849 12.682L8.89071 12.6243L8.90971 12.6834ZM8.87875 13.2667L8.90971 13.3272L8.88719 13.3975L8.84357 13.337L8.87875 13.2667ZM9.06168 13.6276V13.6339V13.6276ZM9.77582 15.3478V15.3541V15.3478ZM9.88206 15.6743L9.90246 15.739L9.83211 15.7165L9.82085 15.6461L9.88206 15.6743ZM9.99323 16.0183L10.0305 16.1323L9.89473 16.1105L9.87362 15.9796L9.99323 16.0183ZM10.2747 16.1083L10.3309 16.1259L10.3598 16.1836L10.2958 16.1738L10.2747 16.1083ZM10.4928 16.4454L10.5498 16.5579H10.421L10.3781 16.4278L10.4928 16.4454ZM10.7827 16.4918L10.8629 16.5045L10.9023 16.5579H10.8171L10.7827 16.4918ZM11.0753 16.7957L11.1506 16.8985L11.0001 16.9217L10.9367 16.7957H11.0753ZM11.3701 16.7957H11.4321L11.4827 16.8464L11.4124 16.8569L11.3701 16.7957ZM11.6903 17.0539L11.7796 17.1433L11.6537 17.1848L11.5721 17.0729L11.6903 17.0539ZM11.9809 17.0089L12.0512 16.9984L12.1054 17.0378L12.035 17.0603L11.9809 17.0089ZM12.3404 17.2101L12.4375 17.2805L12.3151 17.3431L12.2243 17.2467L12.3404 17.2101ZM12.6218 17.1187L12.6732 17.1018L12.7316 17.132L12.6774 17.1595L12.6218 17.1187ZM12.9926 17.2657L13.1059 17.3234L13.0046 17.3938L12.8934 17.3129L12.9926 17.2657ZM13.2536 17.132L13.3303 17.0933L13.3937 17.1137L13.3233 17.1665L13.2536 17.132ZM13.6758 17.2024L13.794 17.2404L13.6842 17.3494L13.5604 17.2861L13.6758 17.2024ZM13.9143 17.0293L13.9643 16.9927L14.0346 17.0033L13.9861 17.0518L13.9143 17.0293ZM14.3224 17.0497L14.4497 17.0694L14.3723 17.1771L14.238 17.1334L14.3224 17.0497ZM14.5335 16.8422L14.5813 16.7936H14.6517L14.608 16.8534L14.5335 16.8422ZM14.9451 16.7936H15.0647L15.0028 16.916L14.8712 16.8956L14.9451 16.7936ZM15.1167 16.5558L15.1484 16.5129L15.2131 16.5023L15.1857 16.5558H15.1167ZM15.503 16.4573L15.6282 16.4376L15.5902 16.5558H15.4495L15.503 16.4573ZM15.636 16.1963L15.6754 16.1189L15.7387 16.0985L15.7106 16.1843L15.636 16.1963ZM16.5049 15.1487L16.5661 15.1044V15.1747L16.4958 15.2113L16.5049 15.1487ZM17.0945 13.325L17.1213 13.2737L17.1515 13.3328L17.1142 13.3841L17.0945 13.325ZM17.2817 12.4343L17.2078 12.333L17.2451 12.219L17.3422 12.3161L17.2817 12.4343ZM17.0347 12.0959L16.9988 12.046L17.0087 11.9826L17.0565 12.0305L17.0347 12.0959ZM16.8476 11.4859L16.792 11.4296V11.36L16.8623 11.4092L16.8476 11.4859ZM16.5535 10.8963L16.5028 10.8591L16.4944 10.8063L16.5528 10.8358L16.5535 10.8963ZM16.4458 10.5157L16.4233 10.375L16.5492 10.4158V10.5706L16.4458 10.5157ZM16.5492 10.1639L16.3811 10.1098L16.3536 9.93598L16.5485 9.96693L16.5492 10.1639ZM16.3149 9.68902L16.2769 9.44911H16.5478V9.72631L16.3149 9.68902ZM16.068 9.65033L15.8893 9.62219L15.833 9.44911H16.0363L16.068 9.65033ZM15.7556 9.21201L15.6852 8.99461L15.9575 8.95169L15.9983 9.21201H15.7556ZM15.5058 9.21201H15.3264L15.2497 9.06285L15.4467 9.0326L15.5058 9.21201ZM15.1371 8.83912L15.0182 8.60413L15.2807 8.51829L15.3728 8.79972L15.1371 8.83912ZM14.8909 8.87781L14.7058 8.90666L14.5876 8.74554L14.7896 8.67941L14.8909 8.87781ZM14.4406 8.54362L14.2999 8.35225L14.5567 8.22209L14.6798 8.46482L14.4406 8.54362ZM14.2028 8.62101L14.036 8.67589L13.9129 8.55206L14.0881 8.46271L14.2028 8.62101ZM13.7349 8.37477L13.5632 8.2031L13.782 8.04409L13.9453 8.26712L13.7349 8.37477ZM13.5119 8.48804L13.35 8.57036L13.2093 8.46482L13.374 8.34522L13.5119 8.48804ZM13.0018 8.31707L12.8146 8.18129L13.0102 7.9864L13.1981 8.17425L13.0018 8.31707ZM12.7991 8.46412L12.6514 8.57176L12.5008 8.49437L12.6415 8.35366L12.7991 8.46412ZM12.2785 8.38039L12.0484 8.26431L12.2116 8.03846L12.4516 8.21224L12.2785 8.38039ZM12.1012 8.55699L11.9731 8.68644L11.7846 8.62594L11.907 8.45638L12.1012 8.55699ZM11.5446 8.54925L11.3202 8.47889L11.4489 8.22491L11.691 8.34873L11.5446 8.54925ZM11.3983 8.75188L11.2949 8.89259L11.1211 8.86515L11.2104 8.68996L11.3983 8.75188ZM10.8762 8.82716L10.6363 8.78917L10.72 8.53166L10.9839 8.61679L10.8762 8.82716ZM10.763 9.04948L10.6806 9.2113H10.4991L10.5624 9.01782L10.763 9.04948ZM10.2493 9.2113H10.015L10.0587 8.93832L10.3246 8.97983L10.2493 9.2113ZM10.1726 9.44841L10.1157 9.62359L9.94398 9.65033L9.97634 9.44841H10.1726ZM10.0319 9.87758L9.99252 9.99789L9.88136 10.0345L9.90317 9.89728L10.0319 9.87758ZM9.90246 10.2793L9.88276 10.3384L9.82859 10.3659L9.83984 10.2997L9.90246 10.2793ZM9.09053 11.0082L9.20873 10.9484V11.0736L9.11234 11.144L9.09053 11.0082ZM9.05113 10.762L9.02087 10.5671L9.20803 10.5059V10.6818L9.05113 10.762ZM9.20943 11.367V11.4374L9.16581 11.4817L9.15385 11.4071L9.20943 11.367ZM9.00328 11.9791L9.01454 12.0495L8.97584 12.1037L8.95192 12.0333L9.00328 11.9791ZM8.31799 13.012L8.17727 13.2033L7.97534 13.0007L8.16813 12.8093L8.31799 13.012ZM8.46504 13.2139L8.56917 13.3546L8.48896 13.5115L8.34825 13.3708L8.46504 13.2139ZM8.3405 12.6391L8.49037 12.4899L8.5748 12.6567L8.46434 12.8093L8.3405 12.6391ZM8.72607 13.5713L8.79995 13.6726L8.76336 13.7866L8.66556 13.6895L8.72607 13.5713ZM8.97303 13.9097L9.01173 13.9625L9.00117 14.0251L8.95192 13.9751L8.97303 13.9097ZM9.16229 14.5218L9.21576 14.576V14.6421L9.15033 14.595L9.16229 14.5218ZM9.45499 15.1093L9.50494 15.1459L9.5162 15.2162L9.45499 15.1853V15.1093ZM9.56193 15.5061L9.58233 15.6313L9.45569 15.5912V15.4505L9.56193 15.5061ZM9.45639 15.841L9.62385 15.8952L9.65128 16.0689L9.45639 16.038V15.841ZM9.69068 16.3152L9.72868 16.5551H9.4578V16.2786L9.69068 16.3152ZM9.93694 16.3546L10.1164 16.3827L10.1726 16.5551H9.97282L9.93694 16.3546ZM10.2493 16.7929L10.3246 17.0244L10.0502 17.0673L10.0066 16.7929H10.2493ZM10.4991 16.7929H10.6715L10.7545 16.9576L10.5624 16.9871L10.4991 16.7929ZM10.8678 17.1799L10.9804 17.4029L10.725 17.4866L10.637 17.2165L10.8678 17.1799ZM11.1147 17.1419L11.3089 17.1109L11.4173 17.2594L11.2062 17.3297L11.1147 17.1419ZM11.565 17.4613L11.7058 17.652L11.4433 17.7856L11.3202 17.5422L11.565 17.4613ZM11.8021 17.3839L11.9696 17.329L12.0941 17.4536L11.9182 17.5429L11.8021 17.3839ZM12.2707 17.6302L12.4424 17.8018L12.2243 17.9615L12.0611 17.7378L12.2707 17.6302ZM12.4931 17.5169L12.6549 17.4346L12.8012 17.5408L12.6373 17.6604L12.4931 17.5169ZM13.0039 17.6879L13.1988 17.8286L13.0025 18.0242L12.8076 17.8328L13.0039 17.6879ZM13.2058 17.5408L13.3423 17.4423L13.5048 17.5253L13.3697 17.6597L13.2058 17.5408ZM13.7272 17.6393L13.9516 17.754L13.7954 17.9735L13.5611 17.8018L13.7272 17.6393ZM13.9038 17.4627L14.0445 17.322L14.2211 17.379L14.0909 17.5591L13.9038 17.4627ZM14.4603 17.4557L14.6854 17.526L14.5503 17.7913L14.3062 17.6667L14.4603 17.4557ZM14.6073 17.253L14.7101 17.1123L14.8838 17.1398L14.7945 17.315L14.6073 17.253ZM15.1308 17.1771L15.3707 17.2151L15.287 17.4726L15.0239 17.3874L15.1308 17.1771ZM15.2441 16.9547L15.3264 16.7929H15.5079L15.4453 16.9864L15.2441 16.9547ZM15.7577 16.7929H15.9948L15.9512 17.0666L15.6824 17.0237L15.7577 16.7929ZM15.8351 16.5551L15.8865 16.3961L16.0631 16.3687L16.0328 16.5551H15.8351ZM15.9688 16.1428L16.0131 16.0063L16.1271 15.969L16.1025 16.1217L15.9688 16.1428ZM16.1046 15.7263L16.1236 15.6672L16.1806 15.6384L16.17 15.7052L16.1046 15.7263ZM16.9165 14.996L16.7983 15.0565V14.9313L16.8954 14.8609L16.9165 14.996ZM16.9559 15.243L16.9869 15.4379L16.7997 15.4991V15.3232L16.9559 15.243ZM16.7976 14.6386V14.5823L16.844 14.5359L16.8539 14.5978L16.7976 14.6386ZM17.0087 14.0392L16.9953 13.9568L17.0347 13.9027L17.0621 13.9864L17.0087 14.0392ZM17.5455 13.1949L17.6764 13.3736L17.5202 13.5291L17.4308 13.3532L17.5455 13.1949ZM17.4414 12.6482L17.5209 12.4913L17.6616 12.632L17.5462 12.7917L17.4414 12.6482ZM17.6919 12.9923L17.8326 12.8009L18.0436 13.012L17.8502 13.2047L17.6919 12.9923ZM17.9733 12.606L18.1569 12.3513L18.4735 12.5807L18.2048 12.8445L17.9733 12.606ZM17.803 12.4357L17.6356 12.269L17.746 12.0523L17.9648 12.2113L17.803 12.4357ZM17.459 12.0924L17.3309 11.9636L17.3872 11.7913L17.5511 11.9109L17.459 12.0924ZM17.4639 11.5542L17.5343 11.3361L17.7798 11.4613L17.6602 11.6963L17.4639 11.5542ZM17.262 11.4071L17.1213 11.3044L17.1487 11.1377L17.3218 11.2263L17.262 11.4071ZM17.1874 10.8907L17.2289 10.6304L17.4871 10.7134L17.3949 10.9948L17.1874 10.8907ZM16.9651 10.7767L16.7941 10.6895V10.4897L17.0009 10.56L16.9651 10.7767ZM16.7927 10.2399V10.0042L17.0811 10.05L17.0382 10.3194L16.7927 10.2399ZM16.7927 9.7629V9.44841H17.1796L17.1205 9.81496L16.7927 9.7629ZM16.7927 9.2113V8.82223L17.2936 8.74343L17.219 9.2113H16.7927ZM16.5549 9.2113H16.2467L16.1996 8.9144L16.5513 8.85882L16.5549 9.2113ZM16.163 8.67941L16.0926 8.25727L16.5499 8.10811V8.62242L16.163 8.67941ZM15.928 8.7167L15.6184 8.76454L15.5143 8.44372L15.8661 8.32833L15.928 8.7167ZM15.4404 8.21787L15.3173 7.83795L15.7535 7.61562L15.8288 8.09123L15.4404 8.21787ZM15.2145 8.28823L14.9169 8.38532L14.7762 8.10952L15.1013 7.94418L15.2145 8.28823ZM14.67 7.89775L14.4856 7.53401L14.8775 7.24906L15.0288 7.71482L14.67 7.89775ZM14.4589 8.00539L14.1676 8.15385L13.9826 7.89986L14.2914 7.67542L14.4589 8.00539ZM13.8425 7.70779L13.6118 7.39189L13.9678 7.0401L14.1824 7.46224L13.8425 7.70779ZM13.6505 7.8485L13.4014 8.02932L13.1903 7.81825L13.4443 7.56496L13.6505 7.8485ZM13.0172 7.64728L12.7098 7.34967L12.9912 6.9599L13.2937 7.37359L13.0172 7.64728ZM12.8491 7.81543L12.6267 8.03635L12.3509 7.84217L12.5684 7.54174L12.8491 7.81543ZM12.1589 7.70145L11.8359 7.46717L12.0583 7.03096L12.3981 7.37078L12.1589 7.70145ZM12.0181 7.89423L11.8324 8.15033L11.558 8.00962L11.7255 7.68105L12.0181 7.89423ZM11.3462 7.90127L10.9839 7.71623L11.1344 7.25188L11.5306 7.53963L11.3462 7.90127ZM11.2386 8.11234L11.0915 8.4008L10.7925 8.30441L10.9093 7.94418L11.2386 8.11234ZM10.5659 8.23124L10.1902 8.10952L10.269 7.61703L10.6954 7.83513L10.5659 8.23124ZM10.4956 8.45708L10.4006 8.74977L10.0974 8.70192L10.1543 8.35014L10.4956 8.45708ZM9.86236 8.66463L9.44021 8.5985V8.12359L9.92357 8.27978L9.86236 8.66463ZM9.82437 8.89962L9.77512 9.2099H9.44373V8.83912L9.82437 8.89962ZM9.73642 9.447L9.69772 9.68762L9.44443 9.72702V9.44559L9.73642 9.447ZM9.65832 9.93457L9.62947 10.1161L9.44584 10.1766V9.96552L9.65832 9.93457ZM9.20803 10.254L8.98358 10.3243L8.93926 10.0429L9.20732 10.0007L9.20803 10.254ZM8.75492 10.4024L8.45589 10.5002L8.3391 10.1407L8.70426 10.0837L8.75492 10.4024ZM8.79291 10.6402L8.8295 10.8731L8.6135 10.9836L8.52907 10.7268L8.79291 10.6402ZM8.8689 11.1201L8.89704 11.2988L8.7507 11.4057L8.68737 11.2122L8.8689 11.1201ZM8.54806 11.5528L8.35458 11.6935L8.22934 11.4458L8.47278 11.3213L8.54806 11.5528ZM8.62546 11.7899L8.68174 11.9629L8.5551 12.0889L8.46363 11.9081L8.62546 11.7899ZM8.37779 12.2655L8.19909 12.4428L8.03585 12.2183L8.26874 12.0495L8.37779 12.2655ZM8.026 12.6123L7.80719 12.8304L7.54756 12.5708L7.84026 12.3598L8.026 12.6123ZM7.63903 12.9986L7.34986 13.2864L6.95655 13L7.35267 12.7122L7.63903 12.9986ZM7.80719 13.1667L8.03656 13.3961L7.85222 13.6508L7.54475 13.4278L7.80719 13.1667ZM8.20682 13.5664L8.37357 13.7331L8.26311 13.9498L8.0443 13.7908L8.20682 13.5664ZM8.55017 13.9097L8.67823 14.0385L8.62264 14.2108L8.458 14.0912L8.55017 13.9097ZM8.54525 14.4479L8.46997 14.6787L8.22301 14.5521L8.35458 14.3079L8.54525 14.4479ZM8.74718 14.595L8.88789 14.6991L8.85905 14.8792L8.68174 14.7885L8.74718 14.595ZM8.82246 15.1262L8.78306 15.3724L8.52203 15.288L8.60998 15.0178L8.82246 15.1262ZM9.04479 15.2401L9.21576 15.3274V15.5124L9.01173 15.4463L9.04479 15.2401ZM9.21647 15.7622V16.0035L8.92941 15.9585L8.97303 15.689L9.21647 15.7622ZM9.21647 16.2385V16.553H8.83231L8.89141 16.1871L9.21647 16.2385ZM9.21647 16.7908V17.1996L8.71552 17.2784L8.79291 16.7957L9.21647 16.7908ZM9.45428 16.7908H9.76175L9.811 17.1018L9.45499 17.1581L9.45428 16.7908ZM9.84829 17.3368L9.91372 17.7484L9.45639 17.8975V17.398L9.84829 17.3368ZM10.0833 17.3002L10.395 17.2509L10.4949 17.5584L10.1431 17.6731L10.0833 17.3002ZM10.5681 17.7842L10.6912 18.1635L10.255 18.3858L10.1839 17.9137L10.5681 17.7842ZM10.7939 17.7104L11.0852 17.6147L11.2259 17.8919L10.9065 18.0544L10.7939 17.7104ZM11.3329 18.1037L11.5179 18.4688L11.1316 18.7502L10.9804 18.2838L11.3329 18.1037ZM11.5439 17.996L11.8408 17.8447L12.0266 18.0987L11.7121 18.3274L11.5439 17.996ZM12.1666 18.2908L12.403 18.6151L12.0407 18.9761L11.8204 18.542L12.1666 18.2908ZM12.3587 18.1501L12.6078 17.9693L12.8287 18.1902L12.5761 18.4484L12.3587 18.1501ZM12.9968 18.3612L13.293 18.6574L13.0116 19.0471L12.7161 18.6419L12.9968 18.3612ZM13.165 18.1937L13.3887 17.9714L13.6512 18.1621L13.4387 18.466L13.165 18.1937ZM13.8432 18.3014L14.1669 18.5364L13.9446 18.9726L13.604 18.6327L13.8432 18.3014ZM13.984 18.1093L14.162 17.8637L14.4385 18.0045L14.2774 18.3211L13.984 18.1093ZM14.6503 18.1135L15.0147 18.3007L14.8684 18.7516L14.4758 18.466L14.6503 18.1135ZM14.7579 17.9024L14.9106 17.6027L15.2103 17.6991L15.0893 18.072L14.7579 17.9024ZM15.4362 17.7723L15.8147 17.894L15.7331 18.402L15.3067 18.1846L15.4362 17.7723ZM15.51 17.5464L15.605 17.2538L15.9097 17.3016L15.8527 17.6569L15.51 17.5464ZM16.1433 17.3389L16.5605 17.405V17.8863L16.0792 17.7308L16.1433 17.3389ZM16.1806 17.1046L16.2305 16.7936H16.5598V17.1644L16.1806 17.1046ZM16.2692 16.5558L16.3051 16.3307L16.5584 16.2913V16.5558H16.2692ZM16.3445 16.0837L16.3762 15.8867L16.5577 15.8269V16.0507L16.3445 16.0837ZM16.7948 15.7495L17.0192 15.6792L17.0664 15.974L16.7955 16.0162L16.7948 15.7495ZM17.2479 15.6011L17.5469 15.5033L17.6686 15.8769L17.3007 15.9346L17.2479 15.6011ZM17.2106 15.3633L17.1733 15.1304L17.39 15.0199L17.4737 15.2774L17.2106 15.3633ZM17.1346 14.8834L17.1065 14.7047L17.2528 14.5978L17.3154 14.7913L17.1346 14.8834ZM17.4547 14.4508L17.6433 14.3143L17.7678 14.5605L17.53 14.6822L17.4547 14.4508ZM17.3781 14.2136L17.3253 14.0518L17.4484 13.9294L17.5343 14.0997L17.3781 14.2136ZM17.625 13.7528L17.8101 13.5692L17.9677 13.7852L17.7291 13.9583L17.625 13.7528ZM17.9803 13.401L18.2005 13.1822L18.4524 13.4348L18.1597 13.6459L17.9803 13.401ZM18.3687 13.0148L18.6586 12.7256L19.0434 13.007L18.6473 13.2948L18.3687 13.0148ZM18.838 12.5561L19.2018 12.193L19.7695 12.4843L19.2538 12.8586L18.838 12.5561ZM18.6431 12.4153L18.2955 12.1628L18.5242 11.8469L18.9787 12.0776L18.6431 12.4153ZM18.1035 12.0235L17.853 11.8391L17.9902 11.5711L18.3089 11.7343L18.1035 12.0235ZM18.0992 11.3621L18.2948 10.9787L18.7522 11.1264L18.451 11.5429L18.0992 11.3621ZM17.8882 11.2538L17.6067 11.113L17.7109 10.7929L18.0626 10.9069L17.8882 11.2538ZM17.7826 10.5621L17.9057 10.1822L18.3898 10.2589L18.171 10.6874L17.7826 10.5621ZM17.5568 10.4918L17.2627 10.3975L17.3119 10.0908L17.6686 10.1477L17.5568 10.4918ZM17.3499 9.85858L17.4146 9.45474H17.8938L17.7425 9.9205L17.3499 9.85858ZM17.4526 9.21764L17.5336 8.71177L18.1668 8.61257L17.9705 9.21764H17.4526ZM17.5737 8.46482L17.6905 7.73663L18.5432 7.45521L18.2505 8.35718L17.5737 8.46482ZM17.3267 8.50352L16.7856 8.58795V8.03283L17.4379 7.82176L17.3267 8.50352ZM16.7835 7.78307V7.09498L17.6222 6.66792L17.4815 7.55582L16.7835 7.78307ZM16.5464 7.86046L16.0539 8.02228L15.973 7.50868L16.5471 7.21599L16.5464 7.86046ZM15.9315 7.26173L15.8217 6.56871L16.5429 6.04526V6.94934L15.9315 7.26173ZM15.7092 7.3757L15.237 7.61562L15.0738 7.11257L15.6057 6.72561L15.7092 7.3757ZM14.9964 6.87477L14.7853 6.22608L15.4249 5.58865L15.5656 6.46248L14.9964 6.87477ZM14.7945 7.02181L14.3723 7.32927L14.1402 6.87054L14.5989 6.41463L14.7945 7.02181ZM14.0255 6.64611L13.6934 5.99038L14.2225 5.25938L14.5152 6.15361L14.0255 6.64611ZM13.8489 6.822L13.464 7.20544L13.139 6.75586L13.5379 6.20427L13.8489 6.822ZM12.9905 6.55675L12.5852 6.00094L13.0074 5.16721L13.4134 5.96857L12.9905 6.55675ZM12.8442 6.75938L12.5395 7.18152L12.1715 6.81356L12.4642 6.23945L12.8442 6.75938ZM11.9949 6.63626L11.4989 6.14376L11.774 5.29597L12.3073 6.02697L11.9949 6.63626ZM11.8817 6.85718L11.641 7.32856L11.2132 7.01759L11.4159 6.39142L11.8817 6.85718ZM11.0106 6.87054L10.4555 6.4674L10.5962 5.57458L11.2245 6.20286L11.0106 6.87054ZM10.9339 7.10835L10.7707 7.60929L10.3098 7.37289L10.4133 6.72983L10.9339 7.10835ZM10.0896 7.25891L9.4381 6.92753V6.02134L10.198 6.57575L10.0896 7.25891ZM10.0502 7.50586L9.96438 8.03917L9.44232 7.87101V7.19348L10.0502 7.50586ZM9.20592 7.79433L8.55158 7.58326L8.40524 6.66299L9.19888 7.06825L9.20592 7.79433ZM9.20592 8.04409V8.56402L8.6923 8.48311L8.59168 7.84991L9.20592 8.04409ZM9.20592 8.80464V9.21342H8.80698L8.73029 8.72936L9.20592 8.80464ZM9.20592 9.45052V9.76782L8.90056 9.81567L8.84287 9.45052H9.20592ZM8.66626 9.85225L8.26452 9.91487L8.11325 9.45052H8.60576L8.66626 9.85225ZM8.026 9.95216L7.51027 10.0324L7.21547 9.44981H7.86207L8.026 9.95216ZM8.10058 10.1815L8.22934 10.5776L7.8494 10.7015L7.62355 10.2561L8.10058 10.1815ZM8.30321 10.8035L8.3982 11.0962L8.12099 11.2369L7.95775 10.9153L8.30321 10.8035ZM7.90921 11.3452L7.5342 11.5359L7.25276 11.1475L7.7319 10.9913L7.90921 11.3452ZM8.01686 11.5563L8.15757 11.8377L7.89373 12.0291L7.67491 11.7301L8.01686 11.5563ZM7.70235 12.1691L7.37941 12.4041L7.03324 12.0572L7.46173 11.8391L7.70235 12.1691ZM7.18522 12.5455L6.75674 12.8565L6.22412 12.4695L6.81091 12.1712L7.18522 12.5455ZM6.55199 13.0028L5.98912 13.4116L5.18844 12.9986L5.98983 12.5905L6.55199 13.0028ZM6.75392 13.1499L7.17607 13.4587L6.80669 13.8295L6.22764 13.5333L6.75392 13.1499ZM7.37378 13.6001L7.7122 13.8464L7.47861 14.1742L7.03113 13.9449L7.37378 13.6001ZM7.90428 13.9857L8.15335 14.1665L8.01264 14.4479L7.6918 14.284L7.90428 13.9857ZM7.90428 14.6583L7.71502 15.0305L7.25698 14.8827L7.55038 14.4775L7.90428 14.6583ZM8.11536 14.7667L8.39679 14.9109L8.29688 15.2183L7.94509 15.1044L8.11536 14.7667ZM8.2223 15.4442L8.09918 15.8241L7.61581 15.7474L7.83392 15.3189L8.2223 15.4442ZM8.44886 15.5145L8.74436 15.6095L8.69582 15.9156L8.33699 15.8586L8.44886 15.5145ZM8.65993 16.1477L8.5952 16.5509H8.11325L8.26452 16.0851L8.65993 16.1477ZM8.55721 16.7887L8.47348 17.3093L7.83463 17.4092L8.03585 16.7887H8.55721ZM8.43408 17.5563L8.3194 18.269L7.46454 18.5504L7.75231 17.6639L8.43408 17.5563ZM8.68104 17.5176L9.2221 17.4332V17.9735L8.57269 18.1846L8.68104 17.5176ZM9.22351 18.2212V18.9085L8.38765 19.3349L8.52836 18.4477L9.22351 18.2212ZM9.46132 18.1431L9.95383 17.9819L10.0354 18.4955L9.46061 18.7882L9.46132 18.1431ZM10.0755 18.7418L10.1853 19.4355L9.46483 19.959V19.0542L10.0755 18.7418ZM10.2986 18.6285L10.77 18.3886L10.9339 18.8917L10.4013 19.2786L10.2986 18.6285ZM11.0106 19.1295L11.2252 19.7887L10.5835 20.436L10.4428 19.5495L11.0106 19.1295ZM11.2132 18.9824L11.6312 18.6792L11.869 19.1477L11.4138 19.6008L11.2132 18.9824ZM11.9816 19.3806L12.3094 20.0272L11.7846 20.7526L11.4961 19.864L11.9816 19.3806ZM12.1589 19.2047L12.5501 18.815L12.8695 19.2533L12.4656 19.8105L12.1589 19.2047ZM13.0165 19.451L13.4225 20.0068L12.9933 20.8511L12.5866 20.0483L13.0165 19.451ZM13.1629 19.2491L13.4682 18.8269L13.8355 19.1949L13.5428 19.769L13.1629 19.2491ZM14.0121 19.3722L14.5088 19.8682L14.233 20.7125L13.7018 19.9857L14.0121 19.3722ZM14.1261 19.1492L14.366 18.6778L14.7945 18.9887L14.5912 19.6149L14.1261 19.1492ZM14.9964 19.1358L15.5537 19.5403L15.4129 20.4339L14.7797 19.8007L14.9964 19.1358ZM15.0738 18.898L15.2321 18.4097L15.6972 18.6482L15.5959 19.2779L15.0738 18.898ZM15.9181 18.7622L16.5675 19.0943V19.9857L15.8126 19.4348L15.9181 18.7622ZM15.9575 18.5152L16.0455 17.9672L16.5654 18.1353V18.8276L15.9575 18.5152ZM16.8018 18.212L17.4569 18.4231L17.6053 19.3595L16.8039 18.9493L16.8018 18.212ZM16.8018 17.9622V17.4423L17.3154 17.5232L17.4168 18.1599L16.8018 17.9622ZM16.8018 17.2017V16.7929H17.2015L17.2781 17.277L16.8018 17.2017ZM16.8018 16.5551V16.2533L17.1093 16.2054L17.1642 16.5572L16.8018 16.5551ZM17.3429 16.1682L17.7481 16.1055L17.8938 16.5551H17.4013L17.3429 16.1682ZM17.986 16.0682L18.4968 15.988L18.7845 16.5551H18.1443L17.986 16.0682ZM17.9114 15.8389L17.7777 15.4287L18.1513 15.3063L18.3842 15.765L17.9114 15.8389ZM17.7045 15.2057L17.6095 14.913L17.8804 14.7723L18.0429 15.0924L17.7045 15.2057ZM18.0922 14.6667L18.4728 14.4726L18.7543 14.8616L18.2751 15.0185L18.0922 14.6667ZM17.9845 14.4557L17.8438 14.1742L18.1133 13.978L18.3321 14.2777L17.9845 14.4557ZM18.3047 13.8401L18.6276 13.6051L18.9738 13.9512L18.5453 14.17L18.3047 13.8401ZM18.8225 13.4636L19.2503 13.1527L19.7829 13.5396L19.1968 13.8379L18.8225 13.4636ZM19.4557 13.0056L20.0059 12.606L20.808 13.0148L20.0221 13.4158L19.4557 13.0056ZM20.2212 12.4498L21.0304 11.8616L22.2842 12.2662L21.0712 12.8846L20.2212 12.4498ZM19.9841 12.3281L19.3784 12.0178L19.9011 11.4972L20.7503 11.7716L19.9841 12.3281ZM19.156 11.906L18.6635 11.6541L18.9886 11.2052L19.6457 11.4163L19.156 11.906ZM19.1356 11.0026L19.5395 10.4454L20.471 10.5861L19.8329 11.2193L19.1356 11.0026ZM18.8985 10.9259L18.406 10.7662L18.6424 10.3032L19.2791 10.4038L18.8985 10.9259ZM18.7529 10.0816L19.0716 9.45614H19.9623L19.4318 10.1893L18.7529 10.0816ZM18.5059 10.0429L17.9803 9.95286L18.1443 9.44911H18.8021L18.5059 10.0429ZM18.2245 9.21904L18.4355 8.57247L19.3277 8.43175L18.9274 9.21764L18.2245 9.21904ZM18.5172 8.31918L18.826 7.36726L20.0784 6.95779L19.46 8.17214L18.5172 8.31918ZM18.9175 7.08795L19.3397 5.7969L21.1401 4.88227L20.2339 6.66018L18.9175 7.08795ZM18.6361 7.17941L17.7348 7.4742L17.8853 6.53565L19.0336 5.94254L18.6361 7.17941ZM17.9325 6.24508L18.152 4.87946L19.7646 3.70732L19.1398 5.63016L17.9325 6.24508ZM17.6708 6.37875L16.7849 6.83044V5.8743L17.8818 5.07716L17.6708 6.37875ZM16.7821 5.58091V4.24414L18.2449 2.7765L17.9297 4.73804L16.7821 5.58091ZM16.545 5.75328L15.783 6.30699L15.6339 5.37969L16.5394 4.47772L16.545 5.75328ZM15.591 5.09404L15.3672 3.68691L16.5373 2.06872L16.5415 4.14845L15.591 5.09404ZM15.3799 5.30089L14.7037 5.9742L14.3949 5.02439L15.1688 3.95708L15.3799 5.30089ZM14.3041 4.74507L13.8819 3.45403L14.7966 1.65361L15.109 3.62359L14.3041 4.74507ZM14.1317 4.98358L13.5731 5.7575L13.1432 4.91323L13.7321 3.75797L14.1317 4.98358ZM13.0102 4.64658L12.3854 3.40971L13.0039 1.51008L13.6315 3.428L13.0102 4.64658ZM12.8772 4.90901L12.4283 5.78917L11.8655 5.01524L12.282 3.73194L12.8772 4.90901ZM11.6917 4.78025L10.9009 3.69114L11.2287 1.6508L12.1293 3.4273L11.6917 4.78025ZM11.6009 5.06168L11.3096 5.94887L10.6447 5.28401L10.8474 4.02111L11.6009 5.06168ZM10.395 5.36632L10.2437 6.3098L9.43951 5.72584V4.40807L10.395 5.36632ZM9.19888 5.55277L8.10129 4.75492L7.78538 2.75891L9.19606 4.16956L9.19888 5.55277ZM9.19888 5.84686V6.80371L8.35458 6.37172L8.15124 5.08701L9.19888 5.84686ZM8.09495 6.23734L6.86579 5.60835L6.24382 3.70098L7.88036 4.8872L8.09495 6.23734ZM8.14069 6.52791L8.29477 7.50023L7.38433 7.20896L6.96922 5.93058L8.14069 6.52791ZM8.33628 7.76337L8.44393 8.44301L7.7502 8.33466L7.4751 7.49038L8.33628 7.76337ZM8.48333 8.68996L8.56636 9.21271H8.03656L7.83322 8.58654L8.48333 8.68996ZM7.78678 9.21271H7.09516L6.68567 8.40502L7.56938 8.54573L7.78678 9.21271ZM6.8292 9.21271H5.83926L5.06532 8.14822L6.39791 8.35929L6.8292 9.21271ZM6.94952 9.44981L7.26402 10.0711L6.54847 10.1829L6.01375 9.44981H6.94952ZM7.3773 10.2941L7.62144 10.7767L7.10431 10.9456L6.70537 10.3996L7.3773 10.2941ZM6.86649 11.0237L6.21286 11.2348L5.55501 10.5762L6.44153 10.4355L6.86649 11.0237ZM7.01425 11.2256L7.32031 11.6477L6.85735 11.8834L6.40142 11.4275L7.01425 11.2256ZM6.63361 11.9932L6.00882 12.3119L5.28765 11.7885L6.14743 11.507L6.63361 11.9932ZM5.77101 12.4329L4.92671 12.8642L3.78127 12.281L5.00621 11.8806L5.77101 12.4329ZM4.66357 12.9958L3.40485 13.6374L1.50517 13.0246L3.46536 12.383L4.66357 12.9958ZM4.9246 13.1295L5.77664 13.5664L4.97737 14.1475L3.72358 13.743L4.9246 13.1295ZM6.01375 13.6874L6.6315 14.004L6.12069 14.5134L5.25951 14.2319L6.01375 13.6874ZM6.85453 14.118L7.3379 14.3656L7.01776 14.8075L6.37187 14.5964L6.85453 14.118ZM6.87423 15.0066L6.47108 15.5638L5.54938 15.4174L6.18261 14.7842L6.87423 15.0066ZM7.11205 15.0833L7.60455 15.243L7.36956 15.708L6.73633 15.6074L7.11205 15.0833ZM7.25769 15.9275L6.93896 16.5523H6.04752L6.57802 15.8199L7.25769 15.9275ZM7.50394 15.9662L8.02671 16.0492L7.86207 16.5558H7.20421L7.50394 15.9662ZM7.78538 16.7901L7.57078 17.4522L6.67512 17.5929L7.0839 16.7908L7.78538 16.7901ZM7.48846 17.7047L7.18381 18.6412L5.93143 19.0507L6.54214 17.8546L7.48846 17.7047ZM7.09305 18.9205L6.6709 20.2115L4.86972 21.1262L5.77594 19.3476L7.09305 18.9205ZM7.37448 18.829L8.27718 18.5364L8.12662 19.4742L6.97414 20.0617L7.37448 18.829ZM8.08159 19.762L7.86207 21.1311L6.24382 22.3046L6.86861 20.3825L8.08159 19.762ZM8.34332 19.6283L9.22702 19.178V20.1341L8.13295 20.9292L8.34332 19.6283ZM9.22913 20.4275V21.7777L7.76075 23.2397L8.07877 21.2613L9.22913 20.4275ZM9.46695 20.2552L10.2289 19.7015L10.3767 20.6379L9.46906 21.5413L9.46695 20.2552ZM10.4217 20.9285L10.6426 22.325L9.47258 23.9432L9.46835 21.8783L10.4217 20.9285ZM10.6293 20.7216L11.3075 20.0462L11.6122 20.9848L10.8382 22.0528L10.6293 20.7216ZM11.7029 21.2648L12.1251 22.5551L11.2104 24.3562L10.898 22.3863L11.7029 21.2648ZM11.876 21.0263L12.4304 20.2601L12.8603 21.1044L12.275 22.2526L11.876 21.0263ZM12.9933 21.3703L13.6188 22.6051L13.0039 24.4977L12.3791 22.5755L12.9933 21.3703ZM13.1263 21.1086L13.5794 20.2249L14.1423 20.9988L13.7201 22.2906L13.1263 21.1086ZM14.3154 21.2296L15.109 22.318L14.7797 24.3703L13.8756 22.5875L14.3154 21.2296ZM14.4061 20.9482L14.6974 20.0525L15.3637 20.7195L15.1611 21.9859L14.4061 20.9482ZM15.6177 20.6372L15.7697 19.693L16.5718 20.2756V21.5933L15.6177 20.6372ZM16.8096 20.4486L17.9072 21.2465L18.2238 23.2425L16.8124 21.8361L16.8096 20.4486ZM16.8096 20.1545V19.2125L17.6539 19.6459L17.8551 20.9123L16.8096 20.1545ZM17.9163 19.7803L19.149 20.4135L19.7625 22.3018L18.1274 21.1142L17.9163 19.7803ZM17.8706 19.4897L17.7123 18.5061L18.622 18.7995L19.0441 20.0962L17.8706 19.4897ZM17.6722 18.238L17.5645 17.5584L18.2575 17.6682L18.5333 18.5124L17.6722 18.238ZM17.5258 17.3114L17.4428 16.7887H17.9719L18.1752 17.4142L17.5258 17.3114ZM18.2217 16.7887H18.9084L19.3171 17.595L18.4419 17.4543L18.2217 16.7887ZM19.1722 16.7887H20.1678L20.9417 17.8532L19.6007 17.6421L19.1722 16.7887ZM19.0491 16.5558L18.7416 15.95L19.4712 15.8368L19.9961 16.5558H19.0491ZM18.6269 15.7277L18.3757 15.2352L18.8992 15.0643L19.308 15.6236L18.6269 15.7277ZM19.137 14.9833L19.7907 14.7723L20.4619 15.4435L19.5718 15.5842L19.137 14.9833ZM18.99 14.7814L18.6832 14.3593L19.1462 14.1236L19.6021 14.5795L18.99 14.7814ZM19.3692 14.0117L19.9947 13.6937L20.7152 14.2172L19.8554 14.4986L19.3692 14.0117ZM20.2318 13.572L21.0634 13.1499L22.2011 13.7324L20.9938 14.1271L20.2318 13.572ZM21.3252 13.0155L22.598 12.3668L24.4976 12.9796L22.5192 13.6269L21.3252 13.0155ZM22.5776 12.1107L21.2619 11.6886L22.3594 10.8914L24.3555 11.2073L22.5776 12.1107ZM20.9818 11.5957L20.0833 11.3058L20.7574 10.6346L22.0238 10.8358L20.9818 11.5957ZM20.9656 10.4271L21.9507 9.44981H23.939L22.3039 10.6381L20.9656 10.4271ZM20.6751 10.3813L19.69 10.2244L20.2529 9.45052H21.6143L20.6751 10.3813ZM20.4204 9.21271L21.202 8.13274L23.2551 7.81191L21.8479 9.21271H20.4204ZM20.127 9.21271H19.1898L19.6119 8.3818L20.8742 8.1848L20.127 9.21271ZM19.7463 8.12359L20.395 6.85014L22.2947 6.2296L21.074 7.91815L19.7463 8.12359ZM20.5477 6.55042L21.4314 4.81684L22.3967 5.94254L20.5477 6.55042ZM19.4367 5.47115L20.0461 3.59615L21.195 4.57552L19.4367 5.47115ZM18.2048 4.54034L18.5122 2.62383L19.7787 3.39775L18.2048 4.54034ZM16.7779 3.90713L16.7737 1.87383L18.2203 2.47115L16.7779 3.90713ZM15.3137 3.3485L15.0098 1.42706L16.4543 1.77251L15.3137 3.3485ZM13.7806 3.12828L13.1713 1.25328L14.6763 1.36937L13.7806 3.12828ZM12.2327 3.10718L11.3526 1.36937L12.8357 1.25258L12.2327 3.10718ZM10.7031 3.42026L9.50705 1.78236L11.024 1.41651L10.7031 3.42026ZM9.19466 3.83185L7.81915 2.45638L9.19044 1.88649L9.19466 3.83185ZM7.82829 4.55582L6.23256 3.39705L7.51942 2.60694L7.82829 4.55582ZM6.56536 5.45286L4.8275 4.56285L5.96239 3.59475L6.56536 5.45286ZM6.66949 5.77298L7.10501 7.11538L5.82167 6.7031L4.88942 4.86398L6.66949 5.77298ZM7.19577 7.39118L7.48706 8.28752L6.5527 8.13907L5.97364 6.99719L7.19577 7.39118ZM6.26352 8.09475L4.86409 7.87312L3.6877 6.26126L5.65774 6.89447L6.26352 8.09475ZM4.73041 8.09475L5.54516 9.21201H4.18794L2.75896 7.78236L4.73041 8.09475ZM5.71895 9.44911L6.28182 10.223L5.34464 10.3701L4.42435 9.44911H5.71895ZM5.05546 10.4151L3.69121 10.6262L2.06875 9.447H4.08944L5.05546 10.4151ZM5.26654 10.6262L5.96168 11.3213L5.04773 11.6168L3.96069 10.8267L5.26654 10.6262ZM4.77403 11.7097L3.48858 12.1318L1.65293 11.1918L3.63282 10.8823L4.77403 11.7097ZM3.42526 13.8928L4.74167 14.315L3.64407 15.1121L1.6473 14.7962L3.42526 13.8928ZM5.02169 14.4078L5.93072 14.7012L5.2588 15.3738L3.97546 15.1705L5.02169 14.4078ZM5.04773 15.5814L4.06904 16.5558H2.06875L3.70388 15.3703L5.04773 15.5814ZM5.33901 15.6271L6.31418 15.7812L5.75131 16.5551H4.40817L5.33901 15.6271ZM5.58034 16.7936L4.7874 17.8905L2.747 18.2092L4.16895 16.7936H5.58034ZM5.87373 16.7936H6.81584L6.38383 17.6379L5.11738 17.8356L5.87373 16.7936ZM6.25297 17.9031L5.61059 19.1597L3.71091 19.7803L4.91967 18.11L6.25297 17.9031ZM5.45932 19.4608L4.57632 21.193L3.611 20.0673L5.45932 19.4608ZM6.57029 20.5366L5.96239 22.4102L4.81414 21.4308L6.57029 20.5366ZM7.80789 21.4653L7.49902 23.3853L6.23256 22.6114L7.80789 21.4653ZM9.23124 22.1182L9.23547 24.1367L7.80015 23.5436L9.23124 22.1182ZM10.6954 22.6621L10.9994 24.5835L9.5556 24.2352L10.6954 22.6621ZM12.2243 22.878L12.8336 24.753L11.3286 24.6356L12.2243 22.878ZM13.7722 22.9076L14.6489 24.637L13.1713 24.7545L13.7722 22.9076ZM15.3067 22.5889L16.5028 24.224L14.9845 24.587L15.3067 22.5889ZM16.8145 22.1731L18.19 23.5485L16.818 24.1177L16.8145 22.1731ZM18.1808 21.4491L19.7759 22.6079L18.4862 23.3973L18.1808 21.4491ZM19.4473 20.5697L21.1683 21.4512L20.0425 22.4116L19.4473 20.5697ZM19.3432 20.2495L18.902 18.8881L20.1755 19.299L21.1169 21.1557L19.3432 20.2495ZM18.8106 18.6102L18.52 17.7146L19.4452 17.8616L20.0235 19.0021L18.8106 18.6102ZM19.7351 17.9067L21.1422 18.1297L22.3186 19.7416L20.3423 19.1041L19.7351 17.9067ZM21.2766 17.9102L20.4612 16.7929H21.8184L23.2474 18.2226L21.2766 17.9102ZM20.2916 16.5551L19.7337 15.7924L20.6737 15.6517L21.582 16.5558L20.2916 16.5551ZM20.9678 15.6025L22.3355 15.3914L23.9418 16.5579H21.9176L20.9678 15.6025ZM20.7567 15.3914L20.0482 14.6864L20.9565 14.3895L22.0604 15.1916L20.7567 15.3914ZM21.2358 14.2946L22.5023 13.8802L24.3555 14.8293L22.3925 15.136L21.2358 14.2946ZM24.5842 10.9962L22.6374 10.6909L24.231 9.53072L24.5842 10.9962ZM24.1283 9.20919H22.1899L23.5612 7.84287L24.1283 9.20919ZM23.4155 7.54667L21.4019 7.86187L22.598 6.21201L23.4155 7.54667ZM4.58969 4.79573L5.50435 6.60038L3.58075 5.97913L4.58969 4.79573ZM2.45712 7.82106L3.85163 9.21271H1.88159L2.45712 7.82106ZM1.77535 9.53072L3.35912 10.6811L1.42919 10.9829L1.77535 9.53072ZM1.42356 15.0059L3.37249 15.3147L1.77746 16.4735L1.42356 15.0059ZM1.88018 16.7929H3.83334L2.4515 18.1691L1.88018 16.7929ZM2.60066 18.4723L4.59391 18.1606L3.41259 19.7936L2.60066 18.4723ZM21.4138 21.2162L20.4949 19.4038L22.4263 20.0265L21.4138 21.2162ZM23.5513 18.1909L22.1561 16.7957H24.1261L23.5513 18.1909ZM24.2324 16.477L22.6655 15.3372L24.575 15.0389L24.2324 16.477Z" fill="url(#paint0_linear_432_12426)" stroke="url(#paint1_linear_432_12426)" stroke-width="0.07"/>
<g filter="url(#filter0_dif_432_12426)">
<circle cx="13" cy="13" r="5" fill="white"/>
</g>
<defs>
<filter id="filter0_dif_432_12426" x="4" y="4" width="18" height="22" filterUnits="userSpaceOnUse" color-interpolation-filters="sRGB">
<feFlood flood-opacity="0" result="BackgroundImageFix"/>
<feColorMatrix in="SourceAlpha" type="matrix" values="0 0 0 0 0 0 0 0 0 0 0 0 0 0 0 0 0 0 127 0" result="hardAlpha"/>
<feOffset dy="4"/>
<feGaussianBlur stdDeviation="2"/>
<feComposite in2="hardAlpha" operator="out"/>
<feColorMatrix type="matrix" values="0 0 0 0 0 0 0 0 0 0 0 0 0 0 0 0 0 0 0.25 0"/>
<feBlend mode="normal" in2="BackgroundImageFix" result="effect1_dropShadow_432_12426"/>
<feBlend mode="normal" in="SourceGraphic" in2="effect1_dropShadow_432_12426" result="shape"/>
<feColorMatrix in="SourceAlpha" type="matrix" values="0 0 0 0 0 0 0 0 0 0 0 0 0 0 0 0 0 0 127 0" result="hardAlpha"/>
<feOffset dy="2"/>
<feGaussianBlur stdDeviation="0.5"/>
<feComposite in2="hardAlpha" operator="arithmetic" k2="-1" k3="1"/>
<feColorMatrix type="matrix" values="0 0 0 0 0 0 0 0 0 0 0 0 0 0 0 0 0 0 0.07 0"/>
<feBlend mode="normal" in2="shape" result="effect2_innerShadow_432_12426"/>
<feGaussianBlur stdDeviation="2" result="effect3_foregroundBlur_432_12426"/>
</filter>
<linearGradient id="paint0_linear_432_12426" x1="-1.57143" y1="2.71429" x2="26.7143" y2="32.7143" gradientUnits="userSpaceOnUse">
<stop stop-color="#B200C1"/>
<stop offset="0.901725" stop-color="#00A3A3"/>
</linearGradient>
<linearGradient id="paint1_linear_432_12426" x1="-1.57143" y1="2.71429" x2="26.7143" y2="32.7143" gradientUnits="userSpaceOnUse">
<stop stop-color="#B200C1"/>
<stop offset="0.901725" stop-color="#00A3A3"/>
</linearGradient>
</defs>
</svg>
